<svg width="457" height="457" viewBox="0 0 457 457" fill="none" xmlns="http://www.w3.org/2000/svg">
<path d="M394.574 107.669C398.778 105.933 401.794 101.545 401.794 96.427C401.794 89.7548 396.767 84.2708 390.461 84.2708C384.154 84.2708 379.036 89.6634 379.036 96.3356C379.036 101.545 382.052 105.933 386.256 107.669C368.708 110.32 369.53 129.331 369.53 129.331L410.934 129.514C410.934 129.514 411.94 110.32 394.574 107.669Z" fill="#F5F5F5"/>
<path d="M149.713 36.4686L122.659 26.8716L95.8787 36.2858C92.4969 37.8396 89.4807 38.845 89.4807 41.9526V57.582C89.4807 68.4586 92.4055 79.2438 98.3465 88.658C103.374 96.6098 111.051 104.927 123.025 110.137C133.993 106.664 142.127 97.2496 147.154 89.2978C153.095 79.7922 156.02 69.007 156.02 58.2218V44.2376C155.929 39.759 153.461 37.5654 149.713 36.4686Z" fill="#F5F5F5"/>
<path d="M131.616 61.695C131.616 57.582 128.234 54.2002 124.121 54.2002C120.008 54.2002 116.626 57.582 116.626 61.695C116.626 65.0768 118.911 68.0016 122.11 68.9156V80.1578H126.223V68.9156C129.331 68.0016 131.616 65.1682 131.616 61.695Z" fill="#EBEBEB"/>
<path d="M379.95 181.429L384.611 183.897L382.509 187.37L377.848 184.628L377.939 189.746H373.918V184.537L369.256 187.37L367.245 183.897L371.907 181.429L367.245 178.87L369.256 175.397L373.918 178.23V173.02H377.939L377.848 178.23L382.509 175.397L384.611 178.87L379.95 181.429Z" fill="#E0E0E0"/>
<path d="M399.235 181.429L403.897 183.897L401.795 187.37L397.133 184.628L397.225 189.746H393.203V184.537L388.542 187.37L386.531 183.897L391.192 181.429L386.531 178.87L388.542 175.397L393.203 178.23V173.02H397.225L397.133 178.23L401.795 175.397L403.897 178.87L399.235 181.429Z" fill="#E0E0E0"/>
<path d="M418.429 181.429L423.091 183.897L420.989 187.37L416.327 184.628L416.419 189.746H412.397V184.537L407.736 187.37L405.725 183.897L410.386 181.429L405.725 178.87L407.736 175.397L412.397 178.23V173.02H416.419L416.327 178.23L420.989 175.397L423.091 178.87L418.429 181.429Z" fill="#E0E0E0"/>
<path d="M222.742 400.241V428.575H264.329H310.12V400.241H222.742Z" fill="#F5F5F5"/>
<path d="M219.086 392.289V400.241H313.137V392.289H264.329H219.086Z" fill="#EBEBEB"/>
<path d="M266.157 428.575H310.12V400.241H313.137V392.289H264.329V399.509L266.157 428.575Z" fill="#EBEBEB"/>
<path d="M252.721 404.811H234.99V409.106H252.721V404.811Z" fill="#E0E0E0"/>
<path d="M255.463 414.408H232.705V423.456H255.463V414.408Z" fill="white"/>
<path d="M236.178 363.863V392.289H277.765H323.556V363.863H236.178Z" fill="#F5F5F5"/>
<path d="M232.522 356.003V363.863H326.572V356.003H277.765H232.522Z" fill="#EBEBEB"/>
<path d="M279.593 392.289H323.556V363.863H326.572V356.003H277.765V363.132L279.593 392.289Z" fill="#EBEBEB"/>
<path d="M266.157 368.525H248.425V372.821H266.157V368.525Z" fill="#E0E0E0"/>
<path d="M268.899 378.122H246.14V387.17H268.899V378.122Z" fill="white"/>
<path d="M407.736 81.5288L405.542 77.8728C386.805 46.9796 352.896 28.334 317.158 30.619C312.588 30.8932 308.018 31.533 303.448 32.5384C270.91 39.4848 242.667 64.0714 230.968 95.513C224.113 114.067 222.194 135.363 209.032 149.987C192.032 169.09 163.058 169.73 137.649 168.907C112.239 168.085 83.3569 168.816 66.3565 188.01C55.7541 200.075 52.3723 217.166 53.1949 233.253C55.4799 275.845 85.1849 313.959 122.933 332.97C160.681 351.89 205.193 353.627 246.506 345.309C304.454 333.61 359.476 301.529 392.655 252.081C425.833 202.451 434.242 134.998 407.736 81.5288Z" fill="#F5F5F5"/>
<path d="M424.187 428.849C424.187 428.94 336.626 429.123 228.5 429.123C120.374 429.123 32.8125 429.032 32.8125 428.849C32.8125 428.666 120.374 428.575 228.5 428.575C336.535 428.575 424.187 428.666 424.187 428.849Z" fill="#263238"/>
<path d="M343.39 206.381H180.149C176.859 206.381 174.117 203.731 174.117 200.349V50.0872C174.117 46.7968 176.768 44.0548 180.149 44.0548H343.39C346.68 44.0548 349.422 46.7054 349.422 50.0872V200.257C349.422 203.639 346.68 206.381 343.39 206.381Z" fill="white"/>
<path d="M343.39 206.381C343.39 206.381 343.573 206.381 343.847 206.381C344.121 206.381 344.578 206.29 345.126 206.107C345.675 205.924 346.315 205.65 346.954 205.193C347.594 204.736 348.325 204.005 348.782 202.999C349.331 201.994 349.422 200.806 349.331 199.435C349.331 198.064 349.331 196.601 349.331 194.956C349.331 191.757 349.331 188.01 349.331 183.805C349.331 166.988 349.331 142.675 349.239 112.605C349.239 97.6152 349.239 81.0718 349.239 63.4316C349.239 59.0444 349.239 54.5658 349.239 49.9958C349.148 47.8022 347.594 45.7 345.492 44.9688C344.487 44.5118 343.298 44.6032 342.11 44.6032C340.922 44.6032 339.734 44.6032 338.637 44.6032C329.223 44.6032 319.534 44.6032 309.572 44.6032C269.813 44.6032 226.124 44.6032 180.241 44.6032C178.87 44.6032 177.499 45.1516 176.493 45.9742C175.488 46.8882 174.757 48.1678 174.574 49.5388C174.483 50.1786 174.483 50.9098 174.483 51.641V53.7432C174.483 55.2056 174.483 56.5766 174.483 58.039C174.483 63.7058 174.483 69.3726 174.483 74.948C174.483 86.0988 174.483 97.1582 174.483 107.943C174.483 129.605 174.483 150.444 174.483 170.37C174.483 180.332 174.483 190.021 174.483 199.435C174.483 199.983 174.483 200.623 174.483 201.171C174.574 201.72 174.665 202.268 174.848 202.817C175.305 203.822 176.036 204.736 176.95 205.376C177.864 206.016 178.961 206.381 180.058 206.381C181.246 206.381 182.343 206.381 183.531 206.381C188.101 206.381 192.58 206.381 197.058 206.381C214.699 206.381 231.242 206.381 246.232 206.381C276.302 206.381 300.615 206.473 317.432 206.473C325.841 206.473 332.33 206.473 336.809 206.473C339.003 206.473 340.739 206.473 341.836 206.473C342.841 206.29 343.39 206.381 343.39 206.381C343.39 206.381 342.841 206.381 341.653 206.381C340.556 206.381 338.82 206.381 336.626 206.381C332.239 206.381 325.658 206.381 317.249 206.381C300.432 206.381 276.119 206.381 246.049 206.473C231.059 206.473 214.516 206.473 196.876 206.473C192.488 206.473 187.918 206.473 183.348 206.473C182.16 206.473 181.063 206.473 179.875 206.473C178.687 206.473 177.499 206.016 176.493 205.376C175.488 204.736 174.757 203.731 174.3 202.634C174.026 202.085 173.934 201.446 173.843 200.897C173.843 200.257 173.843 199.709 173.843 199.161C173.843 189.746 173.843 180.058 173.843 170.095C173.843 150.17 173.843 129.331 173.843 107.669C173.843 96.884 173.843 85.8246 173.843 74.6738C173.843 69.0984 173.843 63.4316 173.843 57.7648C173.843 56.3938 173.843 54.9314 173.843 53.469V51.3668C173.843 50.6356 173.843 49.9044 173.934 49.1732C174.117 47.7108 174.848 46.3398 176.036 45.3344C177.133 44.329 178.596 43.7806 180.149 43.7806C226.032 43.7806 269.721 43.7806 309.48 43.7806C319.443 43.7806 329.131 43.7806 338.546 43.7806C339.734 43.7806 340.922 43.7806 342.019 43.7806C343.207 43.7806 344.395 43.6892 345.492 44.1462C347.777 44.9688 349.422 47.1624 349.514 49.5388C349.514 54.1088 349.514 58.5874 349.514 63.066C349.514 80.7062 349.514 97.2496 349.514 112.239C349.514 142.31 349.422 166.622 349.422 183.44C349.422 187.644 349.422 191.392 349.422 194.591C349.422 196.236 349.422 197.698 349.422 199.069C349.422 200.44 349.331 201.72 348.782 202.725C348.325 203.731 347.594 204.462 346.954 205.01C346.315 205.559 345.583 205.741 345.035 205.924C344.487 206.107 344.03 206.107 343.755 206.107C343.573 206.381 343.39 206.381 343.39 206.381Z" fill="#263238"/>
<path d="M184.354 58.4046C186.02 58.4046 187.37 57.0542 187.37 55.3884C187.37 53.7226 186.02 52.3722 184.354 52.3722C182.688 52.3722 181.338 53.7226 181.338 55.3884C181.338 57.0542 182.688 58.4046 184.354 58.4046Z" fill="#263238"/>
<path d="M193.128 58.4046C194.794 58.4046 196.144 57.0542 196.144 55.3884C196.144 53.7226 194.794 52.3722 193.128 52.3722C191.462 52.3722 190.112 53.7226 190.112 55.3884C190.112 57.0542 191.462 58.4046 193.128 58.4046Z" fill="#263238"/>
<path d="M201.994 58.4046C203.66 58.4046 205.01 57.0542 205.01 55.3884C205.01 53.7226 203.66 52.3722 201.994 52.3722C200.328 52.3722 198.978 53.7226 198.978 55.3884C198.978 57.0542 200.328 58.4046 201.994 58.4046Z" fill="#263238"/>
<path d="M349.422 63.98C349.422 64.0714 310.212 64.2542 261.77 64.2542C213.328 64.2542 174.117 64.1628 174.117 63.98C174.117 63.7972 213.328 63.7058 261.77 63.7058C310.12 63.7058 349.422 63.7972 349.422 63.98Z" fill="#263238"/>
<path d="M286.539 125.035C286.539 125.035 286.63 124.944 286.722 124.761C286.722 124.67 286.813 124.67 286.813 124.578C286.813 124.487 286.905 124.487 286.905 124.395C286.996 124.213 287.087 124.121 287.179 123.847C287.179 123.756 287.27 123.664 287.27 123.481C287.27 123.39 287.362 123.207 287.362 123.116C287.362 123.024 287.453 122.842 287.453 122.659C287.453 122.476 287.544 122.385 287.544 122.202C287.636 121.562 287.544 120.739 287.453 119.917C287.179 118.18 286.448 116.169 285.351 114.067C284.254 111.874 282.7 109.497 280.872 107.121C279.044 104.653 276.759 102.185 274.2 99.626C271.641 97.0668 268.716 94.5076 265.426 92.1312C263.78 90.943 262.044 89.7548 260.216 88.658C258.388 87.5612 256.468 86.5558 254.458 85.6418C252.447 84.7278 250.253 83.9966 248.06 83.631C246.963 83.4482 245.775 83.3568 244.678 83.5396C244.129 83.631 243.581 83.8138 243.033 83.9966C242.484 84.2708 242.027 84.545 241.662 85.002C241.296 85.459 241.022 85.916 240.839 86.4644C240.656 87.0128 240.565 87.5612 240.565 88.201C240.565 89.3892 240.748 90.486 241.022 91.5828C241.662 93.7764 242.667 95.7872 243.764 97.7066C244.861 99.626 246.14 101.363 247.42 103.099C248.699 104.744 250.07 106.39 251.441 107.852C254.183 110.868 257.108 113.427 259.85 115.712C262.684 117.997 265.426 119.917 268.076 121.471C270.727 123.024 273.195 124.304 275.48 125.127C277.765 125.949 279.867 126.498 281.603 126.498C282.426 126.498 283.249 126.498 283.888 126.315C284.071 126.315 284.163 126.223 284.345 126.223C284.528 126.223 284.62 126.132 284.802 126.132C284.894 126.041 285.077 126.041 285.168 125.949C285.259 125.858 285.351 125.858 285.442 125.766C285.625 125.675 285.808 125.584 285.899 125.401C285.991 125.309 285.991 125.309 286.082 125.218C286.173 125.127 286.173 125.127 286.265 125.127C286.448 125.127 286.539 125.035 286.539 125.035C286.539 125.035 286.448 125.127 286.265 125.309C286.265 125.309 286.173 125.401 286.082 125.492C285.991 125.584 285.991 125.584 285.899 125.675C285.716 125.766 285.625 125.949 285.442 126.041C285.351 126.132 285.259 126.132 285.168 126.223C285.077 126.315 284.894 126.315 284.802 126.406C284.711 126.498 284.528 126.498 284.345 126.589C284.163 126.589 284.071 126.68 283.888 126.68C283.249 126.863 282.426 126.863 281.603 126.863C279.867 126.772 277.765 126.315 275.48 125.492C273.195 124.67 270.635 123.39 267.985 121.836C265.334 120.282 262.592 118.363 259.759 116.078C256.925 113.793 254.092 111.234 251.259 108.218C249.888 106.755 248.517 105.11 247.237 103.465C245.957 101.82 244.678 99.9916 243.581 98.0722C242.484 96.1528 241.479 94.142 240.839 91.857C240.565 90.7602 240.291 89.572 240.382 88.3838C240.382 87.8354 240.473 87.1956 240.656 86.6472C240.839 86.0988 241.113 85.5504 241.57 85.0934C241.936 84.6364 242.484 84.2708 243.033 84.088C243.581 83.8138 244.129 83.7224 244.678 83.631C245.866 83.4482 246.963 83.5396 248.151 83.7224C250.436 84.088 252.538 84.8192 254.64 85.7332C256.651 86.6472 258.571 87.6526 260.399 88.7494C262.227 89.8462 263.963 91.0344 265.608 92.2226C268.899 94.599 271.824 97.1582 274.383 99.7174C276.942 102.277 279.227 104.836 281.055 107.212C282.883 109.68 284.437 112.056 285.534 114.25C286.63 116.444 287.362 118.454 287.636 120.191C287.727 121.014 287.819 121.836 287.727 122.476C287.727 122.659 287.636 122.842 287.636 122.933C287.636 123.116 287.544 123.207 287.544 123.39C287.544 123.481 287.453 123.664 287.453 123.756C287.453 123.847 287.362 124.03 287.362 124.121C287.27 124.304 287.179 124.487 287.087 124.67C287.087 124.761 286.996 124.852 286.996 124.852C286.996 124.944 286.905 124.944 286.905 125.035C286.63 124.944 286.539 125.035 286.539 125.035Z" fill="#007EE5"/>
<path d="M294.856 105.019C294.856 105.019 294.856 104.927 294.856 104.653C294.856 104.562 294.856 104.562 294.856 104.47C294.856 104.379 294.856 104.287 294.765 104.196C294.765 104.013 294.674 103.83 294.582 103.648C294.582 103.556 294.491 103.465 294.491 103.282C294.399 103.191 294.399 103.008 294.308 102.916C294.217 102.825 294.217 102.642 294.125 102.551C294.034 102.459 293.942 102.277 293.851 102.185C293.485 101.637 292.937 101.088 292.297 100.54C290.926 99.4432 289.098 98.4378 286.813 97.5238C284.528 96.6098 281.878 95.8786 278.861 95.3302C275.845 94.7818 272.463 94.3248 268.899 94.142C265.243 93.9592 261.404 94.0506 257.382 94.4162C255.372 94.599 253.269 94.8732 251.167 95.2388C249.065 95.6044 246.963 96.1528 244.861 96.7926C242.758 97.5238 240.656 98.3464 238.737 99.5346C237.823 100.174 236.909 100.906 236.086 101.728C235.721 102.185 235.446 102.642 235.172 103.191C234.989 103.739 234.807 104.287 234.807 104.836C234.807 105.384 234.989 106.024 235.172 106.481C235.446 107.029 235.721 107.486 236.086 107.943C236.817 108.857 237.731 109.497 238.737 110.137C240.656 111.325 242.758 112.239 244.861 112.879C246.963 113.519 249.065 114.067 251.167 114.433C253.269 114.798 255.372 115.073 257.382 115.255C261.404 115.621 265.334 115.712 268.899 115.53C272.555 115.347 275.845 114.981 278.861 114.341C281.878 113.793 284.62 113.062 286.813 112.148C289.098 111.234 290.926 110.228 292.297 109.132C292.937 108.583 293.485 108.035 293.851 107.486C293.942 107.395 294.034 107.212 294.125 107.121C294.217 107.029 294.308 106.847 294.308 106.755C294.399 106.664 294.399 106.481 294.491 106.39C294.582 106.298 294.582 106.115 294.582 106.024C294.674 105.841 294.674 105.658 294.765 105.476C294.765 105.384 294.765 105.293 294.856 105.201C294.856 105.11 294.856 105.11 294.856 105.019C294.765 105.201 294.856 105.019 294.856 105.019C294.856 105.019 294.856 105.11 294.856 105.384C294.856 105.476 294.856 105.476 294.856 105.567C294.856 105.658 294.856 105.75 294.856 105.841C294.856 106.024 294.765 106.207 294.674 106.39C294.674 106.481 294.582 106.572 294.582 106.755C294.491 106.847 294.491 107.029 294.399 107.121C294.308 107.212 294.308 107.395 294.217 107.486C294.125 107.578 294.034 107.761 293.942 107.852C293.577 108.4 293.028 108.949 292.389 109.497C291.018 110.594 289.19 111.599 286.905 112.513C284.62 113.427 281.969 114.159 278.953 114.798C275.937 115.347 272.555 115.804 268.99 115.987C265.334 116.169 261.495 116.169 257.474 115.712C255.463 115.53 253.361 115.255 251.259 114.89C249.156 114.524 247.054 113.976 244.952 113.336C242.85 112.605 240.748 111.782 238.828 110.594C237.823 109.954 236.909 109.223 236.178 108.309C235.812 107.852 235.446 107.395 235.264 106.847C235.081 106.298 234.898 105.75 234.898 105.11C234.898 104.47 235.081 103.922 235.264 103.373C235.538 102.825 235.812 102.368 236.178 101.911C236.909 100.997 237.823 100.266 238.828 99.626C240.748 98.3464 242.85 97.5238 244.952 96.884C247.054 96.2442 249.156 95.6958 251.259 95.3302C253.361 94.9646 255.463 94.6904 257.474 94.5076C261.495 94.142 265.426 94.0506 268.99 94.2334C272.646 94.4162 275.937 94.7818 278.953 95.4216C281.969 95.97 284.711 96.7926 286.996 97.7066C289.281 98.6206 291.109 99.626 292.48 100.723C293.12 101.271 293.668 101.82 294.034 102.368C294.125 102.459 294.217 102.642 294.308 102.734C294.399 102.825 294.491 103.008 294.491 103.099C294.582 103.191 294.582 103.373 294.674 103.465C294.765 103.556 294.765 103.739 294.765 103.83C294.856 104.013 294.856 104.196 294.948 104.379C294.948 104.47 294.948 104.562 294.948 104.653C294.948 104.744 294.948 104.836 294.948 104.836C294.856 104.927 294.856 105.019 294.856 105.019Z" fill="#007EE5"/>
<path d="M283.797 80.1578C283.797 80.1578 283.706 80.0664 283.523 79.975C283.431 79.975 283.431 79.8836 283.34 79.8836C283.249 79.8836 283.249 79.7922 283.157 79.7922C282.974 79.7008 282.792 79.6094 282.609 79.518C282.517 79.518 282.426 79.4266 282.243 79.4266C282.152 79.4266 281.969 79.3352 281.878 79.3352C281.786 79.3352 281.603 79.2438 281.421 79.2438C281.238 79.2438 281.146 79.2438 280.964 79.2438C280.324 79.2438 279.501 79.3352 278.679 79.518C277.033 79.8836 275.023 80.7976 272.92 81.9858C270.818 83.2654 268.625 84.9106 266.248 86.9214C263.963 88.9322 261.587 91.4 259.21 94.142C256.834 96.884 254.549 99.9916 252.355 103.373C251.259 105.11 250.253 106.938 249.248 108.766C248.242 110.685 247.42 112.605 246.597 114.707C245.866 116.809 245.226 119.003 245.043 121.288C244.952 122.385 244.952 123.573 245.226 124.67C245.318 125.218 245.5 125.766 245.775 126.315C246.049 126.772 246.414 127.229 246.871 127.594C247.328 127.96 247.877 128.143 248.425 128.326C248.974 128.417 249.522 128.508 250.162 128.508C251.35 128.508 252.447 128.143 253.544 127.777C255.737 127.046 257.657 125.858 259.485 124.67C261.313 123.39 263.049 122.019 264.603 120.648C266.157 119.277 267.711 117.815 269.082 116.261C271.824 113.336 274.291 110.228 276.394 107.304C278.496 104.379 280.232 101.454 281.603 98.712C282.974 95.97 284.071 93.4108 284.711 91.0344C285.442 88.658 285.716 86.5558 285.716 84.9106C285.716 84.088 285.625 83.2654 285.442 82.6256C285.442 82.4428 285.351 82.3514 285.259 82.1686C285.168 81.9858 285.168 81.8944 285.077 81.803C284.985 81.7116 284.985 81.5288 284.894 81.4374C284.802 81.346 284.802 81.2546 284.711 81.1632C284.62 80.9804 284.437 80.7976 284.345 80.7062C284.254 80.6148 284.254 80.6148 284.163 80.5234C284.071 80.432 284.071 80.432 283.98 80.432C283.888 80.1578 283.797 80.1578 283.797 80.1578C283.797 80.1578 283.888 80.2492 284.071 80.432C284.071 80.432 284.163 80.5234 284.254 80.5234C284.345 80.6148 284.345 80.6148 284.437 80.7062C284.528 80.7976 284.711 80.9804 284.802 81.1632C284.894 81.2546 284.894 81.346 284.985 81.4374C285.077 81.5288 285.077 81.7116 285.168 81.803C285.259 81.8944 285.259 82.0772 285.351 82.1686C285.442 82.3514 285.442 82.4428 285.534 82.6256C285.716 83.2654 285.808 83.9966 285.899 84.9106C285.991 86.6472 285.625 88.7494 284.894 91.1258C284.254 93.5022 283.157 96.0614 281.786 98.8034C280.415 101.545 278.679 104.47 276.576 107.395C274.474 110.32 272.098 113.427 269.264 116.352C267.893 117.815 266.34 119.277 264.786 120.739C263.232 122.202 261.495 123.481 259.667 124.761C257.839 126.041 255.829 127.137 253.726 127.96C252.63 128.326 251.533 128.6 250.345 128.691C249.796 128.691 249.156 128.691 248.608 128.508C248.06 128.326 247.511 128.051 247.054 127.777C246.597 127.412 246.232 126.955 245.957 126.406C245.683 125.858 245.5 125.309 245.318 124.761C245.043 123.573 245.043 122.476 245.135 121.288C245.318 119.003 245.957 116.809 246.689 114.707C247.42 112.605 248.334 110.594 249.339 108.766C250.345 106.847 251.35 105.019 252.447 103.373C254.64 99.9002 257.017 96.884 259.302 94.0506C261.678 91.3086 264.055 88.9322 266.34 86.83C268.625 84.8192 270.91 83.174 273.012 81.8944C275.114 80.6148 277.033 79.7922 278.77 79.4266C279.593 79.2438 280.415 79.1524 281.055 79.1524C281.238 79.1524 281.421 79.1524 281.512 79.1524C281.695 79.1524 281.786 79.1524 281.969 79.2438C282.152 79.2438 282.243 79.3352 282.335 79.3352C282.426 79.3352 282.609 79.4266 282.7 79.4266C282.883 79.518 283.066 79.6094 283.249 79.7008C283.34 79.7008 283.431 79.7922 283.431 79.7922C283.523 79.7922 283.523 79.8836 283.614 79.8836C283.706 80.0664 283.797 80.1578 283.797 80.1578Z" fill="#007EE5"/>
<path d="M233.527 119.368C234.133 119.368 234.624 118.877 234.624 118.272C234.624 117.666 234.133 117.175 233.527 117.175C232.921 117.175 232.43 117.666 232.43 118.272C232.43 118.877 232.921 119.368 233.527 119.368Z" fill="#007EE5"/>
<path d="M296.227 83.9052C296.833 83.9052 297.324 83.4142 297.324 82.8084C297.324 82.2027 296.833 81.7116 296.227 81.7116C295.622 81.7116 295.131 82.2027 295.131 82.8084C295.131 83.4142 295.622 83.9052 296.227 83.9052Z" fill="#007EE5"/>
<path d="M241.113 121.379C241.265 121.379 241.387 121.256 241.387 121.105C241.387 120.954 241.265 120.831 241.113 120.831C240.962 120.831 240.839 120.954 240.839 121.105C240.839 121.256 240.962 121.379 241.113 121.379Z" fill="#007EE5"/>
<path d="M247.146 90.1204C247.297 90.1204 247.42 89.9977 247.42 89.8462C247.42 89.6948 247.297 89.572 247.146 89.572C246.994 89.572 246.871 89.6948 246.871 89.8462C246.871 89.9977 246.994 90.1204 247.146 90.1204Z" fill="#007EE5"/>
<path d="M291.475 105.293C291.626 105.293 291.749 105.17 291.749 105.019C291.749 104.867 291.626 104.744 291.475 104.744C291.323 104.744 291.2 104.867 291.2 105.019C291.2 105.17 291.323 105.293 291.475 105.293Z" fill="#007EE5"/>
<path d="M295.405 92.0398C295.556 92.0398 295.679 91.917 295.679 91.7656C295.679 91.6142 295.556 91.4914 295.405 91.4914C295.253 91.4914 295.131 91.6142 295.131 91.7656C295.131 91.917 295.253 92.0398 295.405 92.0398Z" fill="#007EE5"/>
<path d="M276.576 111.325H273.103V92.2226C273.103 87.744 269.447 84.088 264.969 84.088C260.49 84.088 256.834 87.744 256.834 92.2226V111.325H253.178V92.2226C253.178 85.8246 258.388 80.5234 264.877 80.5234C271.275 80.5234 276.576 85.7332 276.576 92.2226V111.325Z" fill="#007EE5"/>
<g opacity="0.3">
<g opacity="0.3">
<g opacity="0.3">
<path opacity="0.3" d="M276.576 111.325H273.103V92.2226C273.103 87.744 269.447 84.088 264.969 84.088C260.49 84.088 256.834 87.744 256.834 92.2226V111.325H253.178V92.2226C253.178 85.8246 258.388 80.5234 264.877 80.5234C271.275 80.5234 276.576 85.7332 276.576 92.2226V111.325Z" fill="black"/>
</g>
</g>
</g>
<path d="M278.587 122.933H251.258C250.162 122.933 249.156 122.019 249.156 120.831V104.744C249.156 103.648 250.07 102.642 251.258 102.642H278.587C279.684 102.642 280.689 103.556 280.689 104.744V120.831C280.598 122.019 279.684 122.933 278.587 122.933Z" fill="#007EE5"/>
<g opacity="0.3">
<g opacity="0.3">
<path opacity="0.3" d="M267.528 110.228C267.528 108.766 266.339 107.578 264.877 107.578C263.415 107.578 262.226 108.766 262.226 110.228C262.226 111.417 263.049 112.422 264.146 112.788V116.718H265.608V112.788C266.705 112.422 267.528 111.417 267.528 110.228Z" fill="black"/>
</g>
</g>
<path d="M250.801 121.014C250.852 121.014 250.893 117.658 250.893 113.519C250.893 109.38 250.852 106.024 250.801 106.024C250.751 106.024 250.71 109.38 250.71 113.519C250.71 117.658 250.751 121.014 250.801 121.014Z" fill="#FAFAFA"/>
<path d="M262.775 113.61C262.775 113.61 262.683 113.61 262.501 113.427C262.318 113.336 262.044 113.062 261.861 112.696C261.404 112.056 260.947 110.868 261.221 109.589C261.495 108.309 262.409 107.486 263.14 107.121C263.506 106.938 263.872 106.847 264.054 106.847C264.237 106.847 264.42 106.847 264.42 106.847C264.42 106.938 263.963 106.938 263.232 107.304C262.592 107.669 261.678 108.492 261.404 109.68C261.13 110.868 261.495 111.965 261.952 112.605C262.409 113.336 262.866 113.61 262.775 113.61Z" fill="#FAFAFA"/>
<path d="M311.583 158.305H214.699C210.037 158.305 206.198 154.466 206.198 149.805V148.799C206.198 144.138 210.037 140.299 214.699 140.299H311.583C316.244 140.299 320.083 144.138 320.083 148.799V149.805C320.083 154.557 316.244 158.305 311.583 158.305Z" fill="#F5F5F5"/>
<path d="M312.405 183.166H215.521C210.86 183.166 207.021 179.327 207.021 174.665V173.66C207.021 168.999 210.86 165.16 215.521 165.16H312.405C317.067 165.16 320.905 168.999 320.905 173.66V174.665C320.905 179.327 317.158 183.166 312.405 183.166Z" fill="#F5F5F5"/>
<path d="M224.204 149.165V146.514H225.301V149.073C225.301 149.987 225.667 150.353 226.306 150.353C226.946 150.353 227.312 149.987 227.312 149.073V146.514H228.408V149.165C228.408 150.536 227.586 151.267 226.306 151.267C225.027 151.267 224.204 150.536 224.204 149.165Z" fill="#263238"/>
<path d="M229.048 150.901L229.414 150.17C229.78 150.353 230.237 150.536 230.694 150.536C231.151 150.536 231.333 150.444 231.333 150.17C231.333 149.622 229.14 150.17 229.14 148.708C229.14 148.068 229.78 147.52 230.785 147.52C231.242 147.52 231.79 147.611 232.156 147.794L231.79 148.525C231.425 148.342 231.059 148.251 230.785 148.251C230.328 148.251 230.145 148.434 230.145 148.616C230.145 149.256 232.339 148.616 232.339 150.079C232.339 150.719 231.699 151.267 230.602 151.267C230.054 151.267 229.414 151.084 229.048 150.901Z" fill="#263238"/>
<path d="M236.452 149.713H233.71C233.801 150.17 234.167 150.444 234.715 150.444C235.081 150.444 235.355 150.353 235.629 150.079L236.178 150.719C235.812 151.084 235.355 151.267 234.715 151.267C233.436 151.267 232.704 150.444 232.704 149.439C232.704 148.342 233.527 147.611 234.624 147.611C235.721 147.611 236.452 148.342 236.452 149.439C236.543 149.53 236.452 149.622 236.452 149.713ZM233.71 149.073H235.446C235.355 148.616 234.989 148.342 234.532 148.342C234.167 148.342 233.801 148.616 233.71 149.073Z" fill="#263238"/>
<path d="M239.468 147.611V148.616C239.377 148.616 239.285 148.616 239.194 148.616C238.645 148.616 238.28 148.891 238.28 149.622V151.358H237.274V147.794H238.28V148.251C238.463 147.794 238.92 147.611 239.468 147.611Z" fill="#263238"/>
<path d="M243.764 149.165V151.267H242.758V149.348C242.758 148.799 242.484 148.525 242.027 148.525C241.57 148.525 241.204 148.799 241.204 149.53V151.267H240.199V147.702H241.204V148.159C241.479 147.885 241.936 147.702 242.393 147.702C243.124 147.611 243.764 148.068 243.764 149.165Z" fill="#263238"/>
<path d="M247.877 149.165V151.176H246.871V150.81C246.689 151.176 246.323 151.267 245.775 151.267C244.952 151.267 244.404 150.81 244.404 150.17C244.404 149.53 244.861 149.073 245.957 149.073H246.78C246.78 148.616 246.506 148.342 245.957 148.342C245.592 148.342 245.226 148.434 244.952 148.708L244.586 147.977C244.952 147.702 245.592 147.52 246.14 147.52C247.237 147.611 247.877 148.068 247.877 149.165ZM246.78 150.079V149.713H246.049C245.592 149.713 245.409 149.896 245.409 150.17C245.409 150.444 245.592 150.627 245.957 150.627C246.414 150.536 246.689 150.444 246.78 150.079Z" fill="#263238"/>
<path d="M254.823 149.165V151.267H253.818V149.348C253.818 148.799 253.543 148.525 253.178 148.525C252.721 148.525 252.355 148.799 252.355 149.439V151.267H251.35V149.348C251.35 148.799 251.076 148.525 250.71 148.525C250.253 148.525 249.887 148.799 249.887 149.439V151.267H248.882V147.702H249.887V148.159C250.162 147.885 250.527 147.702 250.984 147.702C251.441 147.702 251.898 147.885 252.172 148.251C252.447 147.885 252.904 147.702 253.452 147.702C254.275 147.611 254.823 148.068 254.823 149.165Z" fill="#263238"/>
<path d="M259.302 149.713H256.56C256.651 150.17 257.017 150.444 257.565 150.444C257.931 150.444 258.205 150.353 258.479 150.079L259.027 150.719C258.662 151.084 258.205 151.267 257.565 151.267C256.285 151.267 255.554 150.444 255.554 149.439C255.554 148.342 256.377 147.611 257.474 147.611C258.57 147.611 259.302 148.342 259.302 149.439C259.393 149.53 259.302 149.622 259.302 149.713ZM256.651 149.073H258.388C258.296 148.616 257.931 148.342 257.474 148.342C257.017 148.342 256.651 148.616 256.651 149.073Z" fill="#263238"/>
<path d="M266.248 149.439C266.248 150.627 265.7 151.358 264.877 151.358C264.42 151.358 264.146 151.176 263.963 150.81C263.689 151.176 263.323 151.358 262.775 151.358C261.952 151.358 261.221 150.719 261.221 149.713C261.221 148.708 261.861 148.068 262.775 148.068C263.232 148.068 263.598 148.251 263.78 148.525V148.159H264.694V150.353C264.694 150.719 264.877 150.81 265.06 150.81C265.334 150.81 265.517 150.444 265.517 149.713C265.517 148.342 264.512 147.428 263.049 147.428C261.587 147.428 260.581 148.434 260.581 149.805C260.581 151.267 261.587 152.272 263.049 152.272C263.506 152.272 263.963 152.181 264.329 151.998L264.512 152.638C264.146 152.821 263.506 153.004 262.958 153.004C261.038 153.004 259.759 151.724 259.759 149.896C259.759 148.159 261.038 146.88 262.958 146.88C264.969 146.514 266.248 147.702 266.248 149.439ZM263.872 149.622C263.872 149.073 263.506 148.708 263.049 148.708C262.592 148.708 262.227 149.073 262.227 149.622C262.227 150.17 262.592 150.536 263.049 150.536C263.506 150.536 263.872 150.17 263.872 149.622Z" fill="#263238"/>
<path d="M273.012 149.165V151.267H272.006V149.348C272.006 148.799 271.732 148.525 271.367 148.525C270.91 148.525 270.544 148.799 270.544 149.439V151.267H269.539V149.348C269.539 148.799 269.264 148.525 268.899 148.525C268.442 148.525 268.076 148.799 268.076 149.439V151.267H267.071V147.702H268.076V148.159C268.35 147.885 268.716 147.702 269.173 147.702C269.63 147.702 270.087 147.885 270.361 148.251C270.635 147.885 271.092 147.702 271.641 147.702C272.463 147.611 273.012 148.068 273.012 149.165Z" fill="#263238"/>
<path d="M277.125 149.165V151.176H276.119V150.81C275.936 151.176 275.571 151.267 275.022 151.267C274.2 151.267 273.651 150.81 273.651 150.17C273.651 149.53 274.108 149.073 275.205 149.073H276.028C276.028 148.616 275.754 148.342 275.205 148.342C274.84 148.342 274.474 148.434 274.2 148.708L273.834 147.977C274.2 147.702 274.84 147.52 275.388 147.52C276.485 147.611 277.125 148.068 277.125 149.165ZM276.119 150.079V149.713H275.388C274.931 149.713 274.748 149.896 274.748 150.17C274.748 150.444 274.931 150.627 275.297 150.627C275.662 150.536 276.028 150.444 276.119 150.079Z" fill="#263238"/>
<path d="M277.947 146.514C277.947 146.149 278.221 145.966 278.587 145.966C278.953 145.966 279.227 146.24 279.227 146.514C279.227 146.88 278.953 147.154 278.587 147.154C278.221 147.154 277.947 146.88 277.947 146.514ZM278.13 147.611H279.135V151.176H278.13V147.611Z" fill="#263238"/>
<path d="M280.141 146.24H281.146V151.176H280.141V146.24Z" fill="#263238"/>
<path d="M281.877 150.627C281.877 150.262 282.152 149.987 282.517 149.987C282.883 149.987 283.157 150.262 283.157 150.627C283.157 150.993 282.883 151.267 282.517 151.267C282.152 151.267 281.877 150.993 281.877 150.627Z" fill="#263238"/>
<path d="M283.523 149.439C283.523 148.342 284.345 147.611 285.534 147.611C286.265 147.611 286.905 147.977 287.179 148.525L286.356 148.982C286.173 148.616 285.899 148.525 285.534 148.525C284.985 148.525 284.619 148.891 284.619 149.53C284.619 150.17 285.077 150.536 285.534 150.536C285.899 150.536 286.173 150.353 286.356 150.079L287.179 150.536C286.905 151.084 286.356 151.45 285.534 151.45C284.345 151.267 283.523 150.536 283.523 149.439Z" fill="#263238"/>
<path d="M287.453 149.439C287.453 148.342 288.275 147.611 289.464 147.611C290.652 147.611 291.474 148.342 291.474 149.439C291.474 150.536 290.652 151.267 289.464 151.267C288.275 151.267 287.453 150.536 287.453 149.439ZM290.378 149.439C290.378 148.799 290.012 148.434 289.464 148.434C288.915 148.434 288.55 148.799 288.55 149.439C288.55 150.079 288.915 150.444 289.464 150.444C289.921 150.444 290.378 150.079 290.378 149.439Z" fill="#263238"/>
<path d="M298.147 149.165V151.267H297.141V149.348C297.141 148.799 296.867 148.525 296.502 148.525C296.045 148.525 295.679 148.799 295.679 149.439V151.267H294.674V149.348C294.674 148.799 294.399 148.525 294.034 148.525C293.577 148.525 293.211 148.799 293.211 149.439V151.267H292.206V147.702H293.211V148.159C293.485 147.885 293.851 147.702 294.308 147.702C294.765 147.702 295.222 147.885 295.496 148.251C295.77 147.885 296.227 147.702 296.776 147.702C297.598 147.611 298.147 148.068 298.147 149.165Z" fill="#263238"/>
<path d="M238.188 174.208L239.925 175.122L239.194 176.402L237.457 175.397V177.316H235.995V175.397L234.258 176.402L233.527 175.122L235.263 174.208L233.527 173.294L234.258 172.015L235.995 173.02V171.101H237.457V173.02L239.194 172.015L239.925 173.294L238.188 174.208Z" fill="#263238"/>
<path d="M245.226 174.208L246.963 175.122L246.231 176.402L244.495 175.397V177.316H243.032V175.397L241.296 176.402L240.565 175.122L242.301 174.208L240.565 173.294L241.296 172.015L243.032 173.02V171.101H244.495V173.02L246.231 172.015L246.963 173.294L245.226 174.208Z" fill="#263238"/>
<path d="M252.264 174.208L254 175.122L253.178 176.402L251.441 175.397V177.316H249.979V175.397L248.242 176.402L247.511 175.122L249.248 174.208L247.511 173.294L248.242 172.015L249.979 173.02V171.101H251.441V173.02L253.178 172.015L253.909 173.294L252.264 174.208Z" fill="#263238"/>
<path d="M259.302 174.208L261.038 175.122L260.307 176.402L258.57 175.397V177.316H257.108V175.397L255.371 176.402L254.64 175.122L256.377 174.208L254.64 173.294L255.371 172.015L257.108 173.02V171.101H258.57V173.02L260.307 172.015L261.038 173.294L259.302 174.208Z" fill="#263238"/>
<path d="M266.339 174.208L268.076 175.122L267.345 176.402L265.608 175.397V177.316H264.146V175.397L262.409 176.402L261.678 175.122L263.415 174.208L261.678 173.294L262.409 172.015L264.146 173.02V171.101H265.608V173.02L267.345 172.015L268.076 173.294L266.339 174.208Z" fill="#263238"/>
<path d="M273.377 174.208L275.114 175.122L274.383 176.402L272.646 175.397V177.316H271.184V175.397L269.447 176.402L268.716 175.122L270.452 174.208L268.716 173.294L269.447 172.015L271.184 173.02V171.101H272.646V173.02L274.383 172.015L275.114 173.294L273.377 174.208Z" fill="#263238"/>
<path d="M280.415 174.208L282.152 175.122L281.42 176.402L279.684 175.397V177.316H278.221V175.397L276.485 176.402L275.754 175.122L277.49 174.208L275.754 173.294L276.485 172.015L278.221 173.02V171.101H279.684V173.02L281.42 172.015L282.152 173.294L280.415 174.208Z" fill="#263238"/>
<path d="M287.453 174.208L289.19 175.122L288.458 176.402L286.722 175.397V177.316H285.259V175.397L283.523 176.402L282.792 175.122L284.528 174.208L282.792 173.294L283.523 172.015L285.259 173.02V171.101H286.722V173.02L288.458 172.015L289.19 173.294L287.453 174.208Z" fill="#263238"/>
<path d="M364.503 306.738H228.317C225.118 306.738 222.468 304.088 222.468 300.889V230.419C222.468 227.22 225.118 224.57 228.317 224.57H364.503C367.702 224.57 370.353 227.22 370.353 230.419V300.889C370.353 304.179 367.702 306.738 364.503 306.738Z" fill="white"/>
<path d="M364.503 306.738C364.503 306.738 364.869 306.738 365.691 306.556C366.422 306.373 367.519 306.007 368.616 305.002C369.164 304.453 369.621 303.814 369.896 302.9C370.078 302.443 370.17 301.986 370.261 301.529C370.261 301.072 370.261 300.523 370.261 299.975C370.261 297.781 370.261 295.222 370.261 292.389C370.261 280.964 370.261 264.512 370.17 244.129C370.17 241.57 370.17 239.011 370.17 236.269C370.17 234.898 370.17 233.618 370.17 232.247C370.17 230.876 370.353 229.505 369.713 228.226C369.164 226.946 368.25 225.941 366.971 225.301C366.331 225.027 365.691 224.753 364.96 224.753C364.32 224.661 363.498 224.753 362.858 224.753C359.933 224.753 357.008 224.753 353.992 224.753C342.019 224.753 329.223 224.753 315.787 224.753C288.824 224.753 259.302 224.753 228.226 224.753C227.312 224.753 226.398 225.027 225.575 225.392C224.752 225.849 224.021 226.489 223.564 227.22C223.107 228.043 222.742 228.866 222.65 229.78C222.65 230.694 222.65 231.699 222.65 232.613C222.65 236.452 222.65 240.291 222.65 244.038C222.65 251.624 222.65 259.028 222.65 266.34C222.65 273.652 222.65 280.872 222.65 287.91C222.65 291.475 222.65 294.948 222.65 298.33C222.65 299.152 222.65 300.066 222.65 300.889C222.65 301.711 222.924 302.534 223.29 303.265C224.021 304.728 225.484 305.824 227.037 306.099C227.86 306.281 228.683 306.19 229.505 306.19C230.328 306.19 231.15 306.19 231.973 306.19C233.618 306.19 235.263 306.19 236.909 306.19C240.199 306.19 243.398 306.19 246.597 306.19C252.995 306.19 259.21 306.19 265.151 306.19C277.125 306.19 288.275 306.19 298.421 306.19C318.803 306.19 335.255 306.281 346.68 306.281C352.347 306.281 356.825 306.281 359.75 306.281C361.213 306.281 362.401 306.281 363.132 306.281C364.137 306.738 364.503 306.738 364.503 306.738C364.503 306.738 364.137 306.738 363.315 306.738C362.492 306.738 361.395 306.738 359.933 306.738C356.917 306.738 352.53 306.738 346.863 306.738C335.438 306.738 318.986 306.738 298.604 306.83C288.458 306.83 277.307 306.83 265.334 306.83C259.393 306.83 253.178 306.83 246.78 306.83C243.581 306.83 240.382 306.83 237.091 306.83C235.446 306.83 233.801 306.83 232.156 306.83C231.333 306.83 230.511 306.83 229.688 306.83C228.865 306.83 228.043 306.921 227.129 306.738C225.392 306.373 223.838 305.276 223.016 303.631C222.559 302.808 222.376 301.986 222.285 301.072C222.285 300.158 222.285 299.335 222.285 298.512C222.285 295.039 222.285 291.566 222.285 288.093C222.285 281.055 222.285 273.834 222.285 266.522C222.285 259.21 222.285 251.716 222.285 244.221C222.285 240.473 222.285 236.635 222.285 232.796C222.285 231.79 222.285 230.876 222.285 229.871C222.376 228.866 222.742 227.86 223.199 227.038C223.747 226.215 224.478 225.484 225.392 225.027C226.306 224.57 227.312 224.296 228.317 224.296C259.393 224.296 289.007 224.296 315.878 224.296C329.314 224.296 342.11 224.296 354.083 224.296C357.1 224.296 360.024 224.296 362.949 224.296C363.68 224.296 364.412 224.296 365.143 224.296C365.874 224.387 366.605 224.57 367.245 224.935C368.525 225.575 369.621 226.763 370.078 228.043C370.353 228.683 370.535 229.414 370.535 230.145C370.535 230.876 370.535 231.516 370.535 232.247C370.535 233.618 370.535 234.989 370.535 236.269C370.535 238.92 370.535 241.57 370.535 244.129C370.535 264.512 370.444 280.964 370.444 292.389C370.444 295.222 370.444 297.781 370.444 299.975C370.444 300.523 370.444 301.072 370.444 301.529C370.353 302.077 370.261 302.534 370.078 302.991C369.713 303.905 369.256 304.545 368.707 305.093C367.611 306.19 366.422 306.556 365.691 306.647C365.326 306.738 365.051 306.738 364.869 306.738C364.594 306.738 364.503 306.738 364.503 306.738Z" fill="#263238"/>
<path d="M274.017 253.635V254.64H269.721V249.156H273.926V250.162H271.001V251.35H273.56V252.355H271.001V253.635H274.017V253.635Z" fill="#263238"/>
<path d="M280.049 249.156V254.64H279.044L276.302 251.259V254.64H275.022V249.156H276.119L278.861 252.538V249.156H280.049Z" fill="#263238"/>
<path d="M282.517 250.162H280.781V249.156H285.625V250.162H283.888V254.64H282.609V250.162H282.517Z" fill="#263238"/>
<path d="M290.56 253.635V254.64H286.265V249.156H290.469V250.162H287.544V251.35H290.103V252.355H287.544V253.635H290.56V253.635Z" fill="#263238"/>
<path d="M295.039 254.64L293.942 253.087H293.851H292.754V254.64H291.566V249.156H293.942C295.405 249.156 296.319 249.888 296.319 251.167C296.319 251.99 295.862 252.63 295.222 252.904L296.501 254.64H295.039V254.64ZM293.851 250.162H292.846V252.081H293.851C294.674 252.081 295.039 251.716 295.039 251.076C295.039 250.527 294.674 250.162 293.851 250.162Z" fill="#263238"/>
<path d="M299.243 251.898C299.243 250.253 300.523 249.065 302.26 249.065C303.174 249.065 303.996 249.431 304.545 250.07L303.722 250.802C303.356 250.345 302.899 250.162 302.351 250.162C301.346 250.162 300.614 250.893 300.614 251.898C300.614 252.904 301.346 253.635 302.351 253.635C302.899 253.635 303.356 253.452 303.722 252.995L304.545 253.726C303.996 254.366 303.265 254.732 302.26 254.732C300.523 254.732 299.243 253.544 299.243 251.898Z" fill="#263238"/>
<path d="M304.91 251.898C304.91 250.253 306.19 249.065 307.926 249.065C309.663 249.065 310.943 250.253 310.943 251.898C310.943 253.544 309.663 254.732 307.926 254.732C306.19 254.732 304.91 253.544 304.91 251.898ZM309.663 251.898C309.663 250.893 308.932 250.162 307.926 250.162C306.921 250.162 306.19 250.893 306.19 251.898C306.19 252.904 306.921 253.635 307.926 253.635C308.932 253.635 309.663 252.904 309.663 251.898Z" fill="#263238"/>
<path d="M311.948 249.156H314.416C316.244 249.156 317.432 250.253 317.432 251.898C317.432 253.544 316.152 254.64 314.416 254.64H311.948V249.156ZM314.416 253.635C315.513 253.635 316.244 252.995 316.244 251.898C316.244 250.802 315.513 250.162 314.416 250.162H313.228V253.544H314.416V253.635Z" fill="#263238"/>
<path d="M322.733 253.635V254.64H318.438V249.156H322.642V250.162H319.717V251.35H322.276V252.355H319.717V253.635H322.733V253.635Z" fill="#263238"/>
<path d="M252.995 291.566H239.559C237.549 291.566 235.903 289.921 235.903 287.91V266.979C235.903 264.969 237.549 263.323 239.559 263.323H252.995C255.006 263.323 256.651 264.969 256.651 266.979V287.91C256.651 290.012 255.006 291.566 252.995 291.566Z" fill="#EBEBEB"/>
<path d="M278.77 291.566H265.334C263.323 291.566 261.678 289.921 261.678 287.91V266.979C261.678 264.969 263.323 263.323 265.334 263.323H278.77C280.781 263.323 282.426 264.969 282.426 266.979V287.91C282.426 290.012 280.781 291.566 278.77 291.566Z" fill="#EBEBEB"/>
<path d="M304.545 291.566H291.109C289.098 291.566 287.453 289.921 287.453 287.91V266.979C287.453 264.969 289.098 263.323 291.109 263.323H304.545C306.555 263.323 308.201 264.969 308.201 266.979V287.91C308.201 290.012 306.555 291.566 304.545 291.566Z" fill="#EBEBEB"/>
<path d="M330.32 291.566H316.884C314.873 291.566 313.228 289.921 313.228 287.91V266.979C313.228 264.969 314.873 263.323 316.884 263.323H330.32C332.33 263.323 333.976 264.969 333.976 266.979V287.91C333.976 290.012 332.33 291.566 330.32 291.566Z" fill="#EBEBEB"/>
<path d="M356.094 291.566H342.75C340.739 291.566 339.094 289.921 339.094 287.91V266.979C339.094 264.969 340.739 263.323 342.75 263.323H356.186C358.196 263.323 359.842 264.969 359.842 266.979V287.91C359.75 290.012 358.105 291.566 356.094 291.566Z" fill="#EBEBEB"/>
<path d="M250.801 279.684C250.801 281.695 249.248 282.974 247.145 282.974C244.221 282.974 242.758 280.872 242.758 277.49C242.758 273.743 244.769 271.824 247.602 271.824C248.516 271.824 249.431 272.006 250.07 272.372L249.705 273.012C249.156 272.646 248.334 272.555 247.511 272.555C245.043 272.555 243.398 274.2 243.398 277.399C243.398 277.765 243.398 278.222 243.489 278.679C243.946 277.216 245.318 276.394 246.963 276.394C249.339 276.485 250.801 277.765 250.801 279.684ZM249.979 279.684C249.979 278.13 248.882 277.125 246.963 277.125C245.135 277.125 243.946 278.313 243.946 279.775C243.946 281.055 245.043 282.335 247.054 282.335C248.791 282.335 249.979 281.329 249.979 279.684Z" fill="#007EE5"/>
<path d="M276.302 279.867H274.017V282.883H273.194V279.867H266.979V279.318L272.92 271.915H273.834L267.985 279.136H273.286V276.485H274.017V279.136H276.302V279.867V279.867Z" fill="#007EE5"/>
<path d="M298.147 284.802C300.772 284.802 302.899 284.68 302.899 284.528C302.899 284.377 300.772 284.254 298.147 284.254C295.522 284.254 293.394 284.377 293.394 284.528C293.394 284.68 295.522 284.802 298.147 284.802Z" fill="#007EE5"/>
<path d="M231.882 234.989C233.093 234.989 234.075 234.007 234.075 232.796C234.075 231.584 233.093 230.602 231.882 230.602C230.67 230.602 229.688 231.584 229.688 232.796C229.688 234.007 230.67 234.989 231.882 234.989Z" fill="#263238"/>
<path d="M238.28 234.989C239.491 234.989 240.473 234.007 240.473 232.796C240.473 231.584 239.491 230.602 238.28 230.602C237.068 230.602 236.086 231.584 236.086 232.796C236.086 234.007 237.068 234.989 238.28 234.989Z" fill="#263238"/>
<path d="M244.678 234.989C245.889 234.989 246.871 234.007 246.871 232.796C246.871 231.584 245.889 230.602 244.678 230.602C243.466 230.602 242.484 231.584 242.484 232.796C242.484 234.007 243.466 234.989 244.678 234.989Z" fill="#263238"/>
<path d="M370.536 239.102C370.536 239.194 337.449 239.377 296.593 239.377C255.737 239.377 222.65 239.285 222.65 239.102C222.65 239.011 255.737 238.828 296.593 238.828C337.449 238.828 370.536 239.011 370.536 239.102Z" fill="#263238"/>
<path d="M204.462 123.756H133.261C131.251 123.756 129.514 125.401 129.514 127.503V159.95C129.514 161.961 131.159 163.697 133.261 163.697H163.149L169.456 171.832L174.757 163.697H204.462C206.473 163.697 208.209 162.052 208.209 159.95V127.503C208.118 125.401 206.473 123.756 204.462 123.756Z" fill="white"/>
<path d="M204.462 123.756C204.462 123.756 204.553 123.756 204.827 123.756C205.102 123.756 205.376 123.847 205.833 123.938C206.29 124.121 206.747 124.395 207.204 124.852C207.661 125.309 208.026 126.041 208.209 126.955C208.301 130.519 208.301 135.638 208.301 142.127C208.301 145.417 208.301 148.982 208.301 152.912C208.301 154.832 208.301 156.842 208.301 158.945C208.301 159.493 208.301 160.041 208.209 160.59C208.118 161.138 207.844 161.687 207.569 162.144C206.93 163.058 205.833 163.697 204.645 163.697C195.687 163.697 185.633 163.697 174.757 163.697L174.94 163.606C173.294 166.165 171.466 168.907 169.638 171.741L169.456 172.015L169.273 171.741C167.262 169.181 165.16 166.439 162.966 163.606L163.149 163.697C154.923 163.697 146.331 163.697 137.466 163.697C136.46 163.697 135.363 163.697 134.358 163.697C133.81 163.697 133.353 163.697 132.804 163.697C132.256 163.606 131.707 163.423 131.25 163.149C130.336 162.601 129.605 161.687 129.422 160.59C129.331 160.041 129.331 159.493 129.331 159.036V157.482C129.331 153.461 129.331 149.53 129.331 145.6C129.331 141.67 129.331 137.923 129.331 134.175C129.331 132.347 129.331 130.428 129.331 128.6V127.229C129.331 126.772 129.422 126.223 129.605 125.858C129.971 124.944 130.611 124.213 131.433 123.756C131.89 123.573 132.347 123.39 132.804 123.39C133.261 123.39 133.718 123.39 134.175 123.39C135.089 123.39 135.912 123.39 136.826 123.39C138.562 123.39 140.299 123.39 141.944 123.39C145.326 123.39 148.616 123.39 151.815 123.39C158.213 123.39 164.063 123.39 169.456 123.39C180.241 123.39 189.015 123.481 195.048 123.481C198.064 123.481 200.44 123.481 201.994 123.481C202.817 123.481 203.365 123.481 203.822 123.481C204.279 123.664 204.462 123.756 204.462 123.756C204.462 123.756 204.279 123.756 203.822 123.756C203.365 123.756 202.817 123.756 201.994 123.756C200.349 123.756 198.064 123.756 195.048 123.756C189.015 123.756 180.241 123.756 169.456 123.847C164.063 123.847 158.122 123.847 151.815 123.847C148.616 123.847 145.326 123.847 141.944 123.847C140.208 123.847 138.562 123.847 136.826 123.847C135.912 123.847 135.089 123.847 134.175 123.847C133.718 123.847 133.261 123.847 132.896 123.847C132.439 123.847 132.073 124.03 131.707 124.213C130.976 124.578 130.336 125.309 130.062 126.041C129.879 126.406 129.788 126.863 129.788 127.32V128.691C129.788 130.519 129.788 132.347 129.788 134.267C129.788 138.014 129.788 141.853 129.788 145.692C129.788 149.622 129.788 153.552 129.788 157.574V159.127C129.788 159.676 129.788 160.133 129.879 160.59C130.062 161.504 130.702 162.326 131.525 162.783C131.89 163.058 132.439 163.149 132.896 163.24C133.353 163.24 133.901 163.24 134.358 163.24C135.363 163.24 136.369 163.24 137.466 163.24C146.331 163.24 154.923 163.24 163.149 163.24H163.24L163.332 163.332C165.525 166.165 167.628 168.907 169.638 171.466H169.273C171.101 168.633 172.929 165.891 174.574 163.332L174.665 163.24H174.757C185.633 163.24 195.687 163.24 204.645 163.24C205.741 163.24 206.747 162.692 207.295 161.778C207.569 161.321 207.844 160.864 207.935 160.407C208.026 159.95 208.026 159.402 208.026 158.853C208.026 156.751 208.026 154.74 208.026 152.821C208.026 148.891 208.026 145.326 208.026 142.036C208.026 135.546 208.026 130.428 208.026 126.863C207.935 126.041 207.569 125.309 207.112 124.761C206.655 124.304 206.198 123.938 205.741 123.847C204.919 123.664 204.462 123.756 204.462 123.756Z" fill="#263238"/>
<path d="M155.563 132.896V134.084H154.74V132.896L153.461 130.702H154.283L155.197 132.164L156.111 130.702H156.842L155.563 132.896Z" fill="#263238"/>
<path d="M156.843 132.347C156.843 131.342 157.665 130.611 158.671 130.611C159.767 130.611 160.499 131.342 160.499 132.347C160.499 133.353 159.676 134.084 158.671 134.084C157.574 134.084 156.843 133.353 156.843 132.347ZM159.767 132.347C159.767 131.707 159.31 131.25 158.671 131.25C158.031 131.25 157.574 131.707 157.574 132.347C157.574 132.987 158.031 133.444 158.671 133.444C159.31 133.444 159.767 132.987 159.767 132.347Z" fill="#263238"/>
<path d="M161.138 132.621V130.702H161.961V132.53C161.961 133.17 162.235 133.444 162.692 133.444C163.149 133.444 163.423 133.17 163.423 132.53V130.702H164.155V132.621C164.155 133.627 163.606 134.175 162.601 134.175C161.687 134.084 161.138 133.535 161.138 132.621Z" fill="#263238"/>
<path d="M167.079 134.084L166.439 133.17H165.8V134.084H164.977V130.702H166.439C167.353 130.702 167.902 131.159 167.902 131.89C167.902 132.439 167.628 132.804 167.171 132.987L167.902 134.084H167.079ZM166.348 131.342H165.708V132.53H166.348C166.805 132.53 167.079 132.347 167.079 131.982C167.079 131.525 166.805 131.342 166.348 131.342Z" fill="#263238"/>
<path d="M169.638 132.347C169.638 131.342 170.461 130.611 171.466 130.611C172.015 130.611 172.563 130.793 172.837 131.25L172.289 131.707C172.106 131.433 171.741 131.342 171.466 131.342C170.827 131.342 170.37 131.799 170.37 132.439C170.37 133.078 170.827 133.535 171.466 133.535C171.832 133.535 172.106 133.444 172.289 133.17L172.837 133.627C172.563 133.992 172.015 134.267 171.466 134.267C170.461 134.084 169.638 133.353 169.638 132.347Z" fill="#263238"/>
<path d="M173.112 132.347C173.112 131.342 173.934 130.611 174.94 130.611C176.037 130.611 176.768 131.342 176.768 132.347C176.768 133.353 175.945 134.084 174.94 134.084C173.934 134.084 173.112 133.353 173.112 132.347ZM176.037 132.347C176.037 131.707 175.58 131.25 174.94 131.25C174.3 131.25 173.843 131.707 173.843 132.347C173.843 132.987 174.3 133.444 174.94 133.444C175.58 133.444 176.037 132.987 176.037 132.347Z" fill="#263238"/>
<path d="M177.407 130.702H178.961C180.058 130.702 180.789 131.342 180.789 132.439C180.789 133.444 180.058 134.175 178.961 134.175H177.407V130.702ZM178.961 133.444C179.601 133.444 180.058 133.078 180.058 132.439C180.058 131.799 179.601 131.433 178.961 131.433H178.23V133.535H178.961V133.444Z" fill="#263238"/>
<path d="M184.08 133.444V134.084H181.429V130.702H183.988V131.342H182.252V132.073H183.806V132.713H182.252V133.535H184.08V133.444Z" fill="#263238"/>
<path d="M197.516 156.203H140.208C138.38 156.203 137.009 154.74 137.009 153.004V140.939C137.009 139.111 138.471 137.74 140.208 137.74H197.516C199.344 137.74 200.715 139.202 200.715 140.939V153.004C200.715 154.74 199.344 156.203 197.516 156.203Z" fill="#F5F5F5"/>
<path d="M149.896 148.068C149.896 149.713 148.616 150.81 146.88 150.81C144.503 150.81 143.224 149.073 143.224 146.331C143.224 143.315 144.869 141.761 147.245 141.761C147.977 141.761 148.708 141.853 149.256 142.218L148.982 142.767C148.525 142.493 147.885 142.31 147.245 142.31C145.235 142.31 143.864 143.589 143.864 146.24C143.864 146.514 143.864 146.88 143.955 147.337C144.321 146.149 145.417 145.509 146.788 145.509C148.708 145.417 149.896 146.423 149.896 148.068ZM149.256 148.068C149.256 146.788 148.342 145.966 146.788 145.966C145.326 145.966 144.321 146.88 144.321 148.068C144.321 149.165 145.235 150.17 146.88 150.17C148.342 150.17 149.256 149.348 149.256 148.068Z" fill="#007EE5"/>
<path d="M161.869 148.251H159.95V150.719H159.31V148.251H154.192V147.794L159.036 141.761H159.767L155.015 147.702H159.31V145.509H159.95V147.702H161.869V148.251V148.251Z" fill="#007EE5"/>
<path d="M171.832 148.159C171.832 149.622 170.735 150.719 168.724 150.719C167.445 150.719 166.165 150.262 165.525 149.53L165.891 149.073C166.439 149.713 167.536 150.17 168.724 150.17C170.37 150.17 171.192 149.439 171.192 148.159C171.192 146.971 170.37 146.149 168.542 146.149H167.993V145.692L170.644 142.31H165.891V141.67H171.558V142.127L168.816 145.6C170.918 145.692 171.832 146.697 171.832 148.159Z" fill="#007EE5"/>
<path d="M182.8 141.67V142.127L178.961 150.627H178.23L182.069 142.218H177.042V143.955H176.402V141.67H182.8Z" fill="#007EE5"/>
<path d="M187.37 146.24C187.37 143.407 188.833 141.67 190.935 141.67C193.037 141.67 194.499 143.407 194.499 146.24C194.499 149.073 193.037 150.81 190.935 150.81C188.833 150.81 187.37 148.982 187.37 146.24ZM193.768 146.24C193.768 143.772 192.58 142.31 190.935 142.31C189.198 142.31 188.101 143.772 188.101 146.24C188.101 148.708 189.29 150.17 190.935 150.17C192.58 150.17 193.768 148.708 193.768 146.24Z" fill="#007EE5"/>
<path d="M383.332 381.595C395.305 376.477 409.106 366.514 415.322 354.266C402.434 359.476 391.009 369.165 383.332 381.595Z" fill="#263238"/>
<path d="M385.891 362.584C397.864 357.465 411.666 347.503 417.881 335.255C404.993 340.465 393.568 350.153 385.891 362.584Z" fill="#263238"/>
<path d="M389.364 344.121C401.337 339.003 415.139 329.04 421.354 316.792C408.467 322.002 397.042 331.691 389.364 344.121Z" fill="#263238"/>
<path d="M393.66 324.744C404.994 318.072 417.515 306.19 422.177 293.211C410.02 300.158 399.875 311.4 393.66 324.744Z" fill="#263238"/>
<path d="M398.321 309.937C406.547 299.152 414.225 283.157 414.134 269.264C405.085 280.598 399.509 295.131 398.321 309.937Z" fill="#263238"/>
<path d="M396.036 316.975C394.391 302.443 388.724 284.163 379.127 273.195C380.59 288.824 386.622 304.362 396.036 316.975Z" fill="#263238"/>
<path d="M392.106 332.879C389.181 317.889 381.778 299.335 370.901 288.824C373.826 304.91 381.321 320.54 392.106 332.879Z" fill="#263238"/>
<path d="M387.719 352.256C384.794 337.266 377.391 318.712 366.514 308.201C369.348 324.287 376.934 340.008 387.719 352.256Z" fill="#263238"/>
<path d="M384.154 376.111C381.229 361.121 373.826 342.567 362.949 332.056C365.783 348.143 373.369 363.772 384.154 376.111Z" fill="#263238"/>
<path d="M398.87 307.104C398.87 307.104 398.87 307.195 398.778 307.287C398.687 307.47 398.687 307.652 398.595 307.927C398.413 308.566 398.138 309.389 397.773 310.486C397.042 312.771 396.036 316.061 394.939 320.083C393.751 324.196 392.563 329.04 391.192 334.433C389.912 339.917 388.633 345.858 387.445 352.256C386.256 358.562 385.251 364.686 384.52 370.261C383.789 375.837 383.149 380.772 382.783 384.977C382.326 389.181 382.052 392.563 381.961 394.939C381.869 396.128 381.869 397.042 381.778 397.681C381.778 397.956 381.778 398.23 381.778 398.413C381.778 398.595 381.778 398.687 381.778 398.687C381.778 398.687 381.778 398.595 381.778 398.413C381.778 398.23 381.869 397.956 381.869 397.681C381.961 397.042 382.052 396.128 382.143 394.939C382.326 392.563 382.692 389.181 383.149 384.977C383.606 380.772 384.246 375.745 384.977 370.261C385.799 364.686 386.805 358.654 387.993 352.347C389.181 346.04 390.461 340.008 391.74 334.524C393.02 329.04 394.208 324.196 395.305 320.083C396.402 315.97 397.316 312.679 397.956 310.394C398.23 309.298 398.504 308.384 398.687 307.744C398.778 307.47 398.778 307.195 398.87 307.104C398.87 307.195 398.87 307.104 398.87 307.104Z" fill="#263238"/>
<path d="M377.482 389.547C382.6 378.944 386.256 363.955 383.789 352.347C378.122 363.589 375.928 376.842 377.482 389.547Z" fill="#455A64"/>
<path d="M369.073 375.745C374.192 365.143 377.848 350.153 375.38 338.546C369.713 349.788 367.52 363.041 369.073 375.745Z" fill="#455A64"/>
<path d="M361.487 361.761C366.606 351.159 370.262 336.169 367.794 324.561C362.127 335.804 359.933 349.057 361.487 361.761Z" fill="#455A64"/>
<path d="M353.992 346.68C357.74 335.438 359.659 320.083 355.82 308.841C351.616 320.905 350.976 334.341 353.992 346.68Z" fill="#455A64"/>
<path d="M349.148 334.341C348.782 322.368 345.218 307.378 337.814 298.512C337.997 311.4 342.11 324.104 349.148 334.341Z" fill="#455A64"/>
<path d="M351.433 340.282C342.659 331.965 329.223 323.739 317.25 322.642C326.481 331.691 338.637 337.997 351.433 340.282Z" fill="#455A64"/>
<path d="M357.374 352.895C347.503 345.035 332.879 337.723 320.174 337.723C330.594 346.223 343.847 351.616 357.374 352.895Z" fill="#455A64"/>
<path d="M364.777 368.068C354.906 360.207 340.282 352.895 327.578 352.895C337.997 361.396 351.25 366.788 364.777 368.068Z" fill="#455A64"/>
<path d="M375.106 385.525C365.234 377.665 350.61 370.353 337.906 370.353C348.325 378.853 361.578 384.246 375.106 385.525Z" fill="#455A64"/>
<path d="M348.051 332.148C348.051 332.148 348.051 332.239 348.143 332.33C348.234 332.513 348.234 332.696 348.325 332.879C348.508 333.427 348.782 334.158 349.148 335.072C349.879 336.9 350.976 339.642 352.347 342.933C355.18 349.514 359.293 358.471 364.503 368.068C367.062 372.912 369.713 377.391 372.181 381.412C374.649 385.434 376.934 389.09 378.944 392.015C380.955 395.031 382.6 397.407 383.697 398.961C384.246 399.784 384.703 400.332 385.068 400.789C385.251 400.972 385.342 401.155 385.434 401.246C385.525 401.337 385.525 401.429 385.525 401.429C385.525 401.429 385.525 401.337 385.434 401.246C385.342 401.155 385.251 400.972 385.068 400.698C384.794 400.241 384.337 399.601 383.789 398.778C382.692 397.133 381.047 394.757 379.127 391.74C377.208 388.724 374.923 385.16 372.455 381.047C370.079 377.025 367.428 372.455 364.869 367.702C359.659 358.105 355.455 349.148 352.621 342.659C351.159 339.368 350.062 336.718 349.239 334.89C348.874 333.976 348.6 333.244 348.325 332.787C348.234 332.605 348.143 332.422 348.051 332.239C348.051 332.239 348.051 332.148 348.051 332.148Z" fill="#263238"/>
<path d="M353.353 390.826H403.714V400.515H398.596L394.208 428.209H363.041L358.562 400.515H353.353V390.826Z" fill="#007EE5"/>
<path d="M353.353 400.332C353.353 400.241 364.595 400.058 378.396 400.058C392.198 400.058 403.44 400.149 403.44 400.332C403.44 400.423 392.198 400.606 378.396 400.606C364.503 400.606 353.353 400.423 353.353 400.332Z" fill="#263238"/>
<path d="M64.5286 428.3H56.394L53.2864 391.466H62.9748L64.5286 428.3Z" fill="#263238"/>
<path d="M135.455 428.3H143.681L146.697 391.466H137.009L135.455 428.3Z" fill="#263238"/>
<path d="M152.272 396.128L46.9797 398.595L43.7807 330.594C43.5065 323.922 48.8077 318.346 55.4799 318.346H145.235C151.998 318.346 157.391 324.104 156.934 330.868L152.272 396.128Z" fill="#007EE5"/>
<path d="M157.665 330.32C157.665 330.32 157.574 330.32 157.391 330.32C157.208 330.32 156.843 330.32 156.568 330.32C155.746 330.32 154.649 330.32 153.278 330.411C150.353 330.411 146.24 330.411 141.03 330.411C130.702 330.411 116.444 330.32 100.723 330.685C85.0022 331.234 70.7438 331.142 60.4156 330.959C55.2972 330.868 51.0928 330.777 48.168 330.685C46.797 330.594 45.6088 330.594 44.8776 330.594C44.512 330.594 44.2378 330.594 44.055 330.594C43.8722 330.594 43.7808 330.594 43.7808 330.594C43.7808 330.594 43.8722 330.594 44.055 330.594C44.2378 330.594 44.6034 330.594 44.8776 330.594C45.7002 330.594 46.797 330.594 48.168 330.594C51.0928 330.594 55.2058 330.685 60.4156 330.685C70.7438 330.777 85.0022 330.777 100.723 330.228C116.444 329.863 130.702 330.045 141.03 330.137C146.149 330.137 150.353 330.228 153.278 330.228C154.74 330.228 155.837 330.228 156.568 330.228C156.934 330.228 157.208 330.228 157.391 330.228C157.574 330.32 157.665 330.32 157.665 330.32Z" fill="#263238"/>
<path d="M82.1688 319.352C82.1688 319.534 78.8784 319.534 75.3138 321.362C71.7492 323.19 69.7384 325.841 69.647 325.658C69.647 325.658 70.0126 324.927 70.9266 323.922C71.8406 322.916 73.303 321.819 75.0396 320.814C76.8676 319.9 78.6042 319.443 79.9752 319.26C81.3462 319.26 82.1688 319.352 82.1688 319.352Z" fill="#263238"/>
<path d="M125.492 195.687L138.38 219.177L157.208 208.666L166.348 211.682C166.348 211.682 143.224 236.817 139.476 238.006C135.729 239.285 128.6 239.559 124.578 234.441C120.922 229.78 110.137 205.467 110.137 205.467L125.492 195.687Z" fill="#FFBE9D"/>
<path d="M178.504 180.332C178.139 179.875 177.682 179.692 177.133 179.784L168.176 180.972C167.353 181.063 166.714 181.52 166.257 182.252L147.611 210.86L149.073 211.682L159.036 211.408L178.87 180.698L178.504 180.332Z" fill="#263238"/>
<path d="M172.257 183.29C172.024 183.556 171.989 183.906 172.179 184.073C172.368 184.239 172.711 184.159 172.944 183.893C173.177 183.627 173.212 183.277 173.022 183.11C172.832 182.944 172.49 183.025 172.257 183.29Z" fill="white"/>
<path d="M178.778 180.698C178.778 180.698 178.139 180.881 177.042 181.063C175.854 181.246 174.208 181.52 172.289 181.795C171.284 181.977 170.187 182.069 168.999 182.252C168.45 182.343 167.902 182.617 167.628 183.074C167.262 183.623 166.896 184.171 166.531 184.719C165.068 187.004 163.423 189.472 161.778 192.031C158.396 197.241 155.289 201.903 153.004 205.284C151.907 206.93 150.993 208.209 150.262 209.306C149.622 210.22 149.256 210.768 149.165 210.768C149.165 210.768 149.439 210.22 150.079 209.215C150.719 208.209 151.633 206.838 152.638 205.102C154.832 201.628 157.848 196.967 161.23 191.757C162.966 189.198 164.52 186.73 165.982 184.445C166.348 183.897 166.714 183.348 167.079 182.8C167.445 182.252 168.176 181.886 168.816 181.795C170.004 181.612 171.101 181.52 172.106 181.338C174.026 181.063 175.671 180.881 176.859 180.789C178.139 180.698 178.778 180.606 178.778 180.698Z" fill="#455A64"/>
<path d="M168.816 190.935C168.816 190.935 167.993 190.752 167.536 192.945C167.079 195.139 165.708 201.446 165.708 201.446L161.504 199.252L156.294 199.892C156.294 199.892 155.106 200.989 156.02 201.537C156.842 202.085 160.133 202.725 160.133 202.725L162.601 206.198L155.563 202.817C155.563 202.817 153.186 203.456 153.918 204.827C154.557 206.29 159.31 210.677 159.31 210.677L155.837 210.403L151.633 207.844C151.633 207.844 150.353 207.935 150.81 209.032C151.267 210.129 155.654 214.059 155.654 214.059L160.955 216.618C160.955 216.618 163.789 216.435 164.063 215.521C164.337 214.699 164.429 213.51 164.429 213.51C164.429 213.51 165.982 213.145 166.257 212.322C166.531 211.591 166.348 210.403 166.348 210.403C166.348 210.403 168.724 210.86 168.999 209.489C169.273 208.118 169.09 205.559 168.816 204.462C168.542 203.456 169.821 193.859 169.73 193.585C169.73 193.402 170.37 190.295 168.816 190.935Z" fill="#FFBE9D"/>
<path d="M164.337 215.613C164.337 215.704 163.88 215.887 162.966 216.07C162.052 216.252 160.864 216.252 159.493 215.887C158.122 215.613 157.025 214.973 156.294 214.424C155.563 213.876 155.197 213.51 155.289 213.419C155.38 213.328 157.025 214.699 159.585 215.338C162.144 215.978 164.246 215.43 164.337 215.613Z" fill="#EB996E"/>
<path d="M163.058 213.693C162.966 213.785 162.052 213.328 161.047 212.505C160.041 211.682 159.402 210.86 159.493 210.768C159.584 210.677 160.407 211.317 161.412 212.048C162.326 212.871 163.149 213.602 163.058 213.693Z" fill="#EB996E"/>
<path d="M165.8 209.123C165.708 209.215 164.794 208.758 163.88 207.935C162.966 207.112 162.418 206.198 162.509 206.107C162.601 206.016 163.332 206.747 164.246 207.569C165.16 208.392 165.891 209.032 165.8 209.123Z" fill="#EB996E"/>
<path d="M168.724 205.467C168.542 205.559 168.085 204.553 167.262 203.456C166.439 202.36 165.617 201.628 165.708 201.446C165.8 201.354 166.805 201.903 167.719 203.091C168.542 204.279 168.907 205.467 168.724 205.467Z" fill="#EB996E"/>
<path d="M172.289 375.014C172.289 375.014 172.38 374.74 172.289 374.192C172.198 373.643 172.015 372.821 171.375 371.998C171.192 371.815 171.101 371.541 170.826 371.358C170.644 371.175 170.187 370.993 169.821 371.175C169.638 371.267 169.456 371.358 169.364 371.632C169.273 371.815 169.364 372.089 169.364 372.181C169.456 372.546 169.638 372.821 169.821 373.095C170.187 373.643 170.461 374.192 170.918 374.923C171.101 375.288 171.649 375.563 172.106 375.471C172.563 375.38 172.929 375.197 173.203 375.014C173.843 374.557 174.391 374.009 174.848 373.46C175.122 373.186 175.305 372.912 175.488 372.638C175.671 372.364 175.853 372.089 175.945 371.632C176.036 371.267 175.853 370.718 175.488 370.536C175.031 370.353 174.665 370.627 174.482 370.81C174.025 371.267 173.66 371.632 173.386 372.089C172.837 372.912 172.472 373.643 172.289 374.192C172.106 374.74 172.106 375.014 172.106 375.014C172.198 375.014 172.472 373.826 173.66 372.272C173.934 371.907 174.3 371.45 174.757 371.175C174.939 370.993 175.214 370.901 175.396 370.993C175.579 371.084 175.671 371.267 175.579 371.541C175.488 371.815 175.305 372.089 175.122 372.364C174.94 372.638 174.757 372.912 174.482 373.186C174.025 373.735 173.477 374.192 172.929 374.649C172.654 374.831 172.38 375.014 172.015 375.014C171.74 375.014 171.466 374.923 171.283 374.649C170.918 374.1 170.552 373.46 170.278 372.912C170.095 372.638 169.913 372.364 169.821 372.089C169.73 371.815 169.821 371.724 169.912 371.632C170.278 371.45 170.735 371.907 170.918 372.272C172.198 373.735 172.198 375.014 172.289 375.014Z" fill="#263238"/>
<path d="M149.805 375.745L138.654 399.966L120.648 391.649L132.256 361.761L149.805 375.745Z" fill="#FFBE9D"/>
<path d="M140.756 398.321L134.267 410.752C134.267 410.752 150.901 428.026 149.348 431.865L110.137 413.037L120.922 388.084L140.756 398.321Z" fill="#455A64"/>
<path d="M122.933 403.257C122.11 403.074 121.105 403.714 120.922 404.536C120.739 405.359 121.379 406.364 122.202 406.547C123.024 406.73 124.213 405.999 124.304 405.176C124.395 404.354 123.664 403.257 122.75 403.257" fill="#E0E0E0"/>
<g opacity="0.6">
<g opacity="0.6">
<g opacity="0.6">
<g opacity="0.6">
<g opacity="0.6">
<g opacity="0.6">
<g opacity="0.6">
<g opacity="0.6">
<g opacity="0.6">
<g opacity="0.6">
<g opacity="0.6">
<g opacity="0.6">
<path opacity="0.6" d="M110.137 413.037L111.782 409.929L148.799 429.123C148.799 429.123 150.17 430.677 149.439 431.865L110.137 413.037Z" fill="white"/>
</g>
</g>
</g>
</g>
</g>
</g>
</g>
</g>
</g>
</g>
</g>
</g>
<path d="M134.998 410.843C134.906 411.026 133.901 410.66 132.621 410.843C131.342 410.934 130.519 411.574 130.336 411.391C130.154 411.3 130.976 410.295 132.53 410.112C134.084 409.929 135.181 410.752 134.998 410.843Z" fill="#263238"/>
<path d="M138.288 414.59C138.288 414.773 137.283 414.682 136.186 415.23C135.089 415.687 134.541 416.51 134.358 416.418C134.175 416.327 134.541 415.139 135.912 414.59C137.191 413.859 138.38 414.408 138.288 414.59Z" fill="#263238"/>
<path d="M138.288 420.623C138.105 420.623 138.288 419.526 139.293 418.703C140.299 417.881 141.396 417.881 141.396 418.064C141.396 418.246 140.573 418.521 139.75 419.252C138.928 419.892 138.471 420.623 138.288 420.623Z" fill="#263238"/>
<path d="M136.917 406.09C136.734 406.182 136.003 405.542 134.906 405.085C133.81 404.628 132.804 404.536 132.804 404.354C132.804 404.171 133.901 403.805 135.272 404.354C136.46 404.902 137.009 405.999 136.917 406.09Z" fill="#263238"/>
<path d="M144.503 395.122L173.934 321.545C173.934 321.545 173.294 309.023 170.918 305.002C168.633 301.072 98.529 277.947 98.529 277.947C98.529 277.947 80.706 273.652 68.824 277.947C56.942 282.243 47.9848 297.141 49.63 305.367C51.2752 313.593 58.2216 319.717 58.2216 319.717L109.68 321.271L137.74 331.508L118.82 385.708L144.503 395.122Z" fill="#263238"/>
<path d="M170.644 344.852L171.284 371.45L151.45 371.907L148.616 340.008L170.644 344.852Z" fill="#FFBE9D"/>
<path d="M172.472 369.073L172.106 383.057C172.106 383.057 194.682 391.192 194.956 395.305L151.45 395.762L150.079 368.616L172.472 369.073Z" fill="#455A64"/>
<path d="M158.67 381.321C157.848 381.595 157.299 382.509 157.482 383.332C157.665 384.154 158.67 384.794 159.493 384.52C160.316 384.337 161.047 383.149 160.773 382.326C160.498 381.504 159.31 380.864 158.579 381.321" fill="#E0E0E0"/>
<g opacity="0.6">
<g opacity="0.6">
<g opacity="0.6">
<g opacity="0.6">
<g opacity="0.6">
<g opacity="0.6">
<g opacity="0.6">
<g opacity="0.6">
<g opacity="0.6">
<g opacity="0.6">
<g opacity="0.6">
<g opacity="0.6">
<path opacity="0.6" d="M151.45 395.762L151.541 392.197L193.22 393.111C193.22 393.111 195.139 393.934 194.956 395.305L151.45 395.762Z" fill="white"/>
</g>
</g>
</g>
</g>
</g>
</g>
</g>
</g>
</g>
</g>
</g>
</g>
<path d="M172.837 382.875C172.837 383.057 171.741 383.149 170.735 383.88C169.638 384.52 169.181 385.434 168.999 385.434C168.816 385.434 169.09 384.154 170.37 383.332C171.558 382.418 172.837 382.692 172.837 382.875Z" fill="#263238"/>
<path d="M177.408 384.703C177.499 384.885 176.585 385.251 175.854 386.165C175.123 387.079 174.94 387.993 174.757 387.993C174.574 387.993 174.391 386.805 175.305 385.708C176.128 384.611 177.408 384.52 177.408 384.703Z" fill="#263238"/>
<path d="M180.058 390.187C179.875 390.278 179.601 389.181 180.058 387.993C180.607 386.805 181.612 386.348 181.703 386.531C181.795 386.713 181.155 387.353 180.789 388.267C180.332 389.181 180.241 390.095 180.058 390.187Z" fill="#263238"/>
<path d="M172.381 377.756C172.289 377.939 171.284 377.665 170.095 377.756C168.907 377.848 167.993 378.213 167.81 378.03C167.719 377.848 168.633 377.116 170.004 377.025C171.466 376.934 172.472 377.573 172.381 377.756Z" fill="#263238"/>
<path d="M159.036 271.001C159.036 271.001 170.918 270.087 172.197 282.974C173.477 295.862 174.848 356.003 174.848 356.003L147.062 358.288L142.767 296.867L98.5291 278.039C98.5291 277.947 151.084 269.264 159.036 271.001Z" fill="#263238"/>
<path d="M110.137 253.544C110.137 253.544 117.358 273.743 115.987 276.028C114.616 278.313 96.0613 287.544 96.0613 287.544L49.7216 305.367C49.7216 305.367 44.9688 297.781 44.9688 286.173C44.9688 274.566 61.0552 253.635 61.0552 253.635H110.137V253.544Z" fill="#263238"/>
<path d="M96.3354 276.942C96.3354 276.942 96.4268 277.033 96.5182 277.033C96.701 277.125 96.8839 277.216 97.1581 277.308C97.7979 277.582 98.6204 277.947 99.7172 278.404C102.002 279.41 105.293 280.781 109.314 282.609C117.54 286.173 129.148 291.2 142.584 296.959L142.401 296.776C142.858 302.808 143.315 309.389 143.772 316.153C144.869 331.965 145.966 346.589 146.788 358.197V358.379H146.971C155.38 357.648 162.326 357.008 167.17 356.643C169.547 356.46 171.466 356.277 172.746 356.094C173.386 356.003 173.843 356.003 174.208 355.912C174.574 355.912 174.665 355.82 174.665 355.82C174.665 355.82 174.482 355.82 174.208 355.82C173.843 355.82 173.386 355.912 172.746 355.912C171.466 356.003 169.547 356.186 167.17 356.277C162.326 356.643 155.38 357.191 146.971 357.831L147.154 358.014C146.331 346.406 145.326 331.873 144.229 315.97C143.772 309.206 143.315 302.625 142.858 296.593V296.41L142.675 296.319C129.239 290.652 117.632 285.716 109.314 282.152C105.201 280.415 101.911 279.044 99.6258 278.13C98.529 277.673 97.615 277.308 97.0666 277.033C96.7924 276.942 96.6096 276.851 96.4268 276.759C96.4268 276.942 96.3354 276.942 96.3354 276.942Z" fill="#455A64"/>
<path d="M59.5015 278.953C59.5015 278.953 59.9585 278.861 60.7811 278.587C61.6951 278.313 62.8833 277.947 64.2543 277.49C67.1791 276.576 71.2921 275.297 75.9535 274.566C80.6149 273.834 84.9107 274.109 87.9269 274.748C90.9431 275.388 92.6797 276.211 92.6797 276.119C92.6797 276.119 92.3141 275.845 91.4915 275.48C90.6689 275.114 89.4807 274.748 88.0183 274.383C85.0021 273.652 80.6149 273.377 75.8621 274.109C71.1093 274.84 67.0877 276.211 64.1629 277.216C62.7005 277.765 61.5123 278.222 60.6897 278.496C59.8671 278.679 59.5015 278.861 59.5015 278.953Z" fill="#455A64"/>
<path d="M65.9907 268.259C65.9907 268.35 67.5445 268.076 70.0123 268.259C71.2919 268.35 72.7543 268.533 74.3995 268.716C76.0447 268.899 77.8727 269.173 79.7007 269.447C83.4481 270.087 86.7385 271.458 88.7493 272.829C90.8515 274.2 91.8569 275.48 91.8569 275.388C91.8569 275.388 91.6741 275.023 91.2171 274.474C90.7601 273.926 90.0289 273.195 88.9321 272.463C86.8299 271.001 83.5395 269.539 79.7007 268.899C77.7813 268.533 75.9533 268.35 74.3081 268.168C72.6629 267.985 71.1091 267.802 69.9209 267.802C68.6413 267.802 67.6359 267.802 66.9047 267.893C66.3563 268.168 65.9907 268.259 65.9907 268.259Z" fill="#455A64"/>
<path d="M86.5559 105.933C81.2547 105.019 76.5019 107.121 72.0233 110.046C67.5447 113.062 64.1629 117.632 62.1521 122.659C60.0499 127.96 59.5929 133.992 61.1467 139.385C62.7005 144.869 66.4479 149.805 71.5663 152.364C78.5127 155.928 87.3785 154.649 93.5937 149.987C99.8089 145.326 103.373 137.557 103.648 129.788C103.83 124.395 102.551 118.911 99.5347 114.524C96.6099 110.046 91.8571 106.664 86.5559 105.933Z" fill="#263238"/>
<path d="M71.3832 124.03C72.2058 122.019 71.8402 119.734 72.2058 117.54C72.8456 112.788 76.6844 108.949 81.163 107.121C85.276 105.384 90.303 105.75 95.33 107.395C98.7118 108.492 101.911 110.411 104.196 113.153C107.212 116.809 108.309 122.019 106.938 126.589L82.534 123.024C80.249 124.944 77.8726 126.863 75.1306 127.869C74.308 128.143 73.4854 128.417 72.5714 128.234C71.7488 128.143 70.8348 127.503 70.652 126.68C70.4692 125.858 71.0176 124.944 71.3832 124.03Z" fill="#263238"/>
<path d="M95.787 114.159L74.4908 118.637C72.3886 118.82 70.8348 120.465 70.7434 122.567L71.0176 168.633C71.0176 171.741 72.1144 174.848 74.0338 177.316L76.0446 179.967C80.706 185.908 90.0288 185.359 93.5934 178.687C93.8676 178.23 94.0504 177.773 94.0504 177.499C94.1418 177.042 94.2332 176.768 94.2332 176.493L94.5988 172.015C94.7816 167.902 94.873 163.789 94.873 163.789C94.873 163.789 103.556 162.692 105.841 151.45C106.938 145.874 107.029 136.643 106.846 129.148C106.664 122.11 102.551 113.702 95.787 114.159Z" fill="#FFBE9D"/>
<path d="M103.647 137.557C103.647 138.288 103.008 138.928 102.185 138.928C101.362 138.928 100.723 138.288 100.723 137.557C100.723 136.826 101.362 136.186 102.185 136.186C103.008 136.186 103.647 136.826 103.647 137.557Z" fill="#263238"/>
<path d="M104.653 133.627C104.47 133.81 103.373 132.987 101.82 132.896C100.266 132.804 99.0776 133.535 98.8948 133.353C98.8034 133.261 98.9862 132.896 99.5346 132.621C100.083 132.256 100.906 131.982 101.82 131.982C102.825 131.982 103.556 132.439 104.013 132.804C104.653 133.261 104.744 133.535 104.653 133.627Z" fill="#263238"/>
<path d="M89.6633 137.191C89.6633 137.923 89.0235 138.562 88.2009 138.562C87.3783 138.562 86.7385 137.923 86.7385 137.191C86.7385 136.46 87.3783 135.82 88.2009 135.82C89.0235 135.82 89.6633 136.46 89.6633 137.191Z" fill="#263238"/>
<path d="M89.8461 133.261C89.6633 133.444 88.5665 132.621 87.0127 132.53C85.4589 132.439 84.2707 133.17 84.0879 132.987C83.9965 132.896 84.1793 132.53 84.7277 132.256C85.2761 131.89 86.0987 131.616 87.0127 131.616C88.0181 131.616 88.7493 132.073 89.2063 132.439C89.8461 132.804 89.9375 133.17 89.8461 133.261Z" fill="#263238"/>
<path d="M94.5991 145.143C94.5991 145.052 95.6045 144.96 97.1583 144.778C97.5239 144.778 97.9809 144.686 97.9809 144.412C98.0723 144.138 97.9809 143.681 97.7981 143.224C97.4325 142.218 97.0669 141.213 96.7013 140.116C95.2389 135.729 94.2335 132.164 94.3249 132.073C94.5077 131.982 95.8787 135.546 97.3411 139.933C97.7067 141.03 98.0723 142.036 98.3465 143.041C98.4379 143.498 98.7121 144.046 98.5293 144.595C98.4379 144.869 98.0723 145.052 97.8895 145.143C97.6153 145.235 97.4325 145.235 97.2497 145.235C95.5131 145.235 94.5991 145.235 94.5991 145.143Z" fill="#263238"/>
<path d="M94.8731 163.606C94.8731 163.606 87.2869 163.789 79.8835 158.945C79.8835 158.945 83.3567 166.896 94.6903 166.257L94.8731 163.606Z" fill="#EB996E"/>
<path d="M93.7765 148.891C93.2281 148.159 92.3141 147.702 91.3087 147.794C90.6689 147.885 89.9377 148.159 89.4807 148.708C89.0237 149.256 88.9323 149.987 89.2979 150.536C89.6635 151.176 90.5775 151.358 91.3087 151.176C92.0399 150.993 92.6797 150.536 93.3195 150.079C93.5023 149.987 93.6851 149.805 93.7765 149.622C93.8679 149.348 93.9593 149.073 93.7765 148.891Z" fill="#EB996E"/>
<path d="M89.9376 146.057C90.2118 146.057 90.1204 147.702 91.4914 148.982C92.8624 150.262 94.6904 150.079 94.6904 150.353C94.6904 150.444 94.2334 150.627 93.5022 150.627C92.771 150.627 91.6742 150.353 90.8516 149.53C90.029 148.799 89.6634 147.794 89.6634 147.063C89.572 146.423 89.8462 145.966 89.9376 146.057Z" fill="#263238"/>
<path d="M89.7547 128.6C89.5719 129.057 88.0181 128.783 86.1901 128.874C84.3621 128.965 82.8997 129.422 82.6255 129.057C82.5341 128.874 82.8083 128.508 83.4481 128.051C84.0879 127.686 85.0019 127.32 86.0987 127.229C87.1955 127.137 88.2009 127.32 88.8407 127.686C89.5719 128.143 89.8461 128.417 89.7547 128.6Z" fill="#263238"/>
<path d="M104.47 126.863C104.196 127.229 103.099 126.772 101.819 126.772C100.54 126.68 99.443 126.955 99.1688 126.498C99.0774 126.315 99.2602 125.949 99.7172 125.675C100.174 125.401 100.997 125.127 101.911 125.218C102.825 125.309 103.556 125.675 104.013 126.041C104.47 126.315 104.653 126.68 104.47 126.863Z" fill="#263238"/>
<path d="M67.4532 120.739C69.6468 114.25 79.3352 105.476 86.0988 106.024L96.884 112.788C96.1528 116.535 93.228 119.643 89.572 120.739C87.6526 121.288 85.2762 121.379 84.088 123.024C82.8998 124.67 83.5396 127.137 82.3514 128.874C80.7976 131.25 76.6846 131.068 75.4964 133.627C74.948 134.724 75.2222 136.095 74.6738 137.283C73.9426 138.745 70.1038 140.665 68.55 140.116C66.9962 139.568 66.9962 136.917 66.5392 135.455C65.7166 132.987 66.0822 131.799 66.4478 130.428C67.179 127.32 66.3564 123.847 67.4532 120.739Z" fill="#263238"/>
<path d="M73.2113 141.579C73.2113 140.756 72.3887 138.745 71.5661 138.562C69.3725 138.105 65.3509 138.197 65.0767 143.772C64.7111 151.45 72.4801 150.262 72.5715 149.987C72.5715 149.805 73.1199 144.412 73.2113 141.579Z" fill="#FFBE9D"/>
<path d="M70.2865 146.971C70.2865 146.971 70.1037 147.063 69.9209 147.154C69.7381 147.245 69.2811 147.337 68.9155 147.154C68.0929 146.788 67.4531 145.509 67.5445 144.138C67.5445 143.407 67.7273 142.767 68.0015 142.218C68.2757 141.67 68.6413 141.304 69.0983 141.213C69.4639 141.122 69.8295 141.396 69.8295 141.579C69.9209 141.761 69.8295 141.944 69.9209 141.944C69.9209 141.944 70.1037 141.853 70.0123 141.487C70.0123 141.304 69.9209 141.122 69.7381 141.03C69.5553 140.847 69.2811 140.756 69.0069 140.756C68.3671 140.756 67.8187 141.304 67.5445 141.853C67.1789 142.493 66.9961 143.224 66.9961 143.955C66.9961 145.509 67.7273 146.971 68.8241 147.337C69.3725 147.52 69.8295 147.337 70.1037 147.154C70.2865 147.154 70.3779 146.971 70.2865 146.971Z" fill="#EB996E"/>
<path d="M65.808 118.729C65.808 116.352 62.7918 114.707 60.5068 114.159C58.1304 113.61 55.6626 114.341 53.5604 115.438C52.2808 116.078 51.0926 117.083 50.8184 118.454C50.5442 119.825 51.9152 121.471 53.1948 121.014C50.6356 121.836 49.356 125.218 50.727 127.594C52.098 129.971 55.5712 130.519 57.6734 128.874C57.0336 131.068 55.5712 133.078 53.6518 134.358C57.582 134.906 61.7864 133.261 64.2542 130.062C66.6306 126.955 67.2704 122.476 65.808 118.729Z" fill="#263238"/>
<path d="M60.4153 130.976C60.3239 130.976 60.1411 130.154 60.1411 128.691C60.1411 127.229 60.3239 125.218 61.0551 123.116C61.7863 121.014 62.7917 119.277 63.7057 118.18C64.6197 117.083 65.2595 116.444 65.3509 116.535C65.5337 116.626 62.8831 119.186 61.5121 123.299C60.1411 127.412 60.5981 130.976 60.4153 130.976Z" fill="#FF725E"/>
<path d="M94.5991 110.503C95.3303 113.61 100.083 117.632 102.185 120.1C106.207 124.761 106.938 126.315 106.938 136.734C108.858 133.17 110.229 129.605 110.137 125.584C109.954 121.562 108.492 117.449 105.659 114.524C102.825 111.599 98.6207 109.954 94.5991 110.503Z" fill="#263238"/>
<path d="M127.229 196.144C127.229 196.144 118.911 182.343 116.626 179.51C114.433 176.859 111.691 175.305 109.863 174.483C108.857 174.026 107.761 173.751 106.664 173.569L94.6904 170.918C94.6904 170.918 94.6904 179.053 86.0988 179.601C77.5986 180.058 70.4694 168.176 70.4694 168.176C70.4694 168.176 56.668 170.278 53.3776 172.015C50.0872 173.751 44.8774 175.854 42.044 190.112L40.0332 204.096L63.7972 206.29L66.0822 241.57L77.8728 249.796C77.8728 249.796 110.503 258.296 112.605 258.845C114.707 259.393 115.347 206.29 115.347 206.29C115.347 206.29 123.756 200.897 127.229 196.144Z" fill="#263238"/>
<path d="M111.599 190.203C111.599 190.203 111.782 190.569 112.056 191.209C112.331 191.849 112.696 192.854 113.062 194.042C113.793 196.51 114.707 199.983 115.164 203.822C115.621 207.752 115.621 211.317 115.53 213.876C115.438 215.156 115.347 216.161 115.255 216.892C115.164 217.623 115.073 217.989 115.073 217.989C115.073 217.989 115.073 217.623 115.073 216.892C115.164 216.161 115.164 215.156 115.164 213.876C115.255 211.317 115.164 207.752 114.707 203.913C114.25 200.075 113.427 196.601 112.788 194.134C112.422 192.945 112.148 191.94 111.965 191.209C111.691 190.569 111.599 190.203 111.599 190.203Z" fill="#455A64"/>
<path d="M110.594 248.06L65.8079 238.28L63.7057 206.29L43.7805 204.462C43.7805 204.462 44.5117 226.306 45.2429 232.796C46.3397 242.119 51.8237 254.915 55.1141 257.474C58.3131 260.033 112.513 258.845 112.513 258.845L110.594 248.06Z" fill="#FFBE9D"/>
<path d="M136.003 253.818C135.729 254.458 134.998 254.823 134.358 254.823C134.175 254.823 134.084 254.823 133.901 254.732C132.895 254.458 132.987 252.355 132.987 252.355L128.234 251.624C128.234 251.624 122.11 255.646 119.917 258.205C117.723 260.856 112.148 258.662 112.148 258.662L110.228 248.517L118.911 240.656C118.911 240.656 118.363 241.113 119.003 239.651C119.642 238.188 122.384 238.737 122.384 238.737C122.841 238.006 124.578 237.731 124.578 237.731L132.256 238.645C133.809 238.828 135.272 239.742 136.094 241.022L139.293 246.14C139.293 246.14 141.03 249.796 140.756 250.71C140.299 251.99 138.928 251.716 138.928 251.716C138.928 251.716 138.562 254.183 137.922 254.183C137.283 254.183 136.003 253.818 136.003 253.818Z" fill="#FFBE9D"/>
<path d="M119.734 246.597C119.734 246.689 120.739 246.597 122.384 246.689C124.03 246.78 126.315 247.054 128.6 247.877C129.788 248.242 130.885 248.791 131.799 249.248C132.713 249.796 133.718 250.162 133.992 250.893C134.175 251.259 134.084 251.533 133.901 251.807C133.718 252.081 133.535 252.173 133.352 252.264C132.987 252.447 132.713 252.355 132.713 252.355C132.713 252.355 132.987 252.538 133.444 252.447C133.718 252.355 133.992 252.264 134.175 251.898C134.358 251.624 134.541 251.167 134.358 250.71C134.175 250.253 133.809 249.888 133.444 249.613C132.987 249.339 132.621 249.065 132.073 248.791C131.067 248.242 129.971 247.785 128.782 247.328C126.406 246.506 124.03 246.232 122.384 246.232C120.739 246.323 119.734 246.506 119.734 246.597Z" fill="#EB996E"/>
<path d="M119.186 251.441C119.186 251.624 122.293 251.441 126.132 251.716C129.971 251.898 133.078 252.447 133.078 252.264C133.078 252.173 132.347 251.99 131.068 251.807C129.788 251.624 128.051 251.35 126.132 251.259C124.213 251.167 122.476 251.167 121.196 251.259C119.917 251.259 119.186 251.35 119.186 251.441Z" fill="#EB996E"/>
<path d="M136.003 253.635C136.003 253.635 136.095 253.361 136.095 252.812C136.095 252.264 136.186 251.533 136.095 250.527C136.095 250.07 136.003 249.522 135.912 248.974C135.82 248.425 135.546 247.785 135.181 247.328C134.449 246.323 133.535 245.226 132.347 244.404C131.159 243.581 129.879 242.941 128.691 242.576C127.503 242.21 126.315 242.119 125.401 242.027C124.487 242.027 123.664 242.027 123.207 242.027C122.659 242.027 122.385 242.119 122.385 242.119C122.385 242.21 123.573 242.21 125.401 242.393C126.315 242.484 127.412 242.576 128.6 242.941C129.788 243.307 130.976 243.947 132.073 244.769C133.261 245.592 134.175 246.506 134.815 247.603C135.546 248.608 135.729 249.705 135.82 250.619C135.912 252.447 135.82 253.635 136.003 253.635Z" fill="#EB996E"/>
<path d="M124.944 239.742C124.944 239.834 126.132 239.834 127.96 240.016C129.696 240.291 132.53 240.382 134.175 242.85C135.912 245.043 137.374 247.146 138.014 248.882C138.654 250.619 138.654 251.716 138.745 251.716C138.745 251.716 138.836 251.441 138.745 250.893C138.745 250.345 138.654 249.613 138.288 248.699C137.74 246.871 136.186 244.769 134.449 242.484C133.992 241.936 133.535 241.387 132.987 241.022C132.438 240.565 131.799 240.382 131.159 240.199C129.971 239.834 128.874 239.742 127.868 239.651C126.04 239.559 124.944 239.651 124.944 239.742Z" fill="#EB996E"/>
<path d="M121.562 256.56C121.562 256.56 121.745 256.468 122.019 256.194C122.385 255.92 122.75 255.554 123.299 255.189C124.395 254.275 126.132 253.087 128.326 251.716H128.234C129.605 251.99 131.25 252.264 132.987 252.538L132.804 252.355C132.804 252.721 132.804 253.087 132.896 253.544C132.987 253.909 133.078 254.366 133.444 254.64C133.627 254.823 133.901 254.915 134.084 254.915C134.267 255.006 134.541 255.006 134.724 254.915C135.181 254.823 135.638 254.64 135.912 254.275C136.003 254.183 136.095 254.092 136.095 254.001V253.909C136.186 253.909 135.546 254.092 135.82 254.001L136.003 254.092C136.186 254.183 136.369 254.275 136.643 254.275C136.826 254.366 137.1 254.366 137.283 254.458C137.374 254.458 137.557 254.458 137.648 254.458C137.74 254.458 137.923 254.458 138.105 254.366C138.38 254.183 138.471 253.909 138.562 253.726C138.654 253.544 138.745 253.269 138.837 253.087C138.928 252.63 139.019 252.173 139.111 251.716L138.837 251.898C139.476 251.99 140.208 251.898 140.573 251.259C140.756 250.984 140.939 250.71 140.939 250.345C140.939 249.979 140.847 249.705 140.756 249.431C140.39 248.242 139.933 247.146 139.476 246.049C138.928 245.135 138.38 244.221 137.74 243.307C137.374 242.758 137.009 242.119 136.643 241.57C136.277 241.022 135.912 240.382 135.455 239.925C134.998 239.468 134.358 239.011 133.718 238.828C133.078 238.554 132.347 238.463 131.799 238.463C129.24 238.188 126.863 237.914 124.578 237.64C124.121 237.731 123.756 237.823 123.299 238.006C122.933 238.188 122.476 238.371 122.202 238.737L122.476 238.645C121.653 238.28 120.739 238.28 120.008 238.828C119.277 239.285 119.003 240.016 118.82 240.748L118.911 240.656C116.444 242.941 114.341 244.769 112.879 246.049C112.239 246.689 111.691 247.146 111.234 247.511C110.868 247.877 110.685 248.06 110.685 248.06C110.685 248.06 110.868 247.877 111.325 247.603C111.782 247.237 112.331 246.78 112.97 246.14C114.433 244.861 116.535 243.033 119.094 240.839V240.748C119.277 240.108 119.551 239.468 120.191 239.102C120.739 238.737 121.562 238.737 122.293 239.011L122.476 239.102L122.567 238.92C122.75 238.645 123.116 238.463 123.481 238.371C123.847 238.28 124.304 238.097 124.67 238.097H124.578C126.863 238.371 129.24 238.645 131.799 238.92C132.439 239.011 133.078 239.011 133.627 239.285C134.175 239.559 134.724 239.834 135.181 240.291C135.638 240.748 135.912 241.296 136.277 241.844C136.643 242.393 137.009 243.033 137.374 243.581C137.923 244.495 138.562 245.409 139.111 246.323C139.568 247.42 140.116 248.517 140.39 249.613C140.482 249.888 140.573 250.162 140.573 250.436C140.573 250.619 140.482 250.893 140.39 251.076C140.116 251.441 139.568 251.624 139.111 251.533H138.837V251.807C138.745 252.264 138.654 252.721 138.562 253.087C138.471 253.452 138.288 253.909 138.105 254.092C138.105 254.092 138.014 254.092 137.923 254.092C137.831 254.092 137.74 254.092 137.648 254.092C137.466 254.092 137.283 254.001 137.1 253.909C136.917 253.818 136.734 253.818 136.552 253.726L136.369 253.635C136.643 253.544 136.003 253.726 136.095 253.726V253.818C136.003 253.909 136.003 254.001 135.912 254.001C135.638 254.275 135.363 254.458 134.998 254.549C134.815 254.549 134.632 254.549 134.449 254.549C134.267 254.549 134.175 254.458 133.992 254.366C133.535 253.909 133.444 253.087 133.444 252.355V252.173H133.261C131.525 251.898 129.971 251.624 128.508 251.441H128.417H128.326C126.132 252.812 124.487 254.092 123.39 255.006C122.842 255.463 122.385 255.829 122.202 256.103C121.745 256.468 121.562 256.56 121.562 256.56Z" fill="#EB996E"/>
<path d="M194.042 224.387L135.089 224.844C133.17 224.844 131.342 225.758 131.068 227.677L124.67 270.635H94.325C93.3196 270.635 92.5884 271.458 92.5884 272.372C92.5884 273.377 93.411 274.109 94.325 274.109H124.121H129.788H191.209L197.79 228.774C198.247 226.489 196.419 224.387 194.042 224.387Z" fill="#E0E0E0"/>
<path d="M194.042 224.387C194.042 224.387 194.408 224.387 194.956 224.478C195.505 224.661 196.51 224.935 197.241 225.941C197.607 226.398 197.881 227.038 197.972 227.86C198.064 228.591 197.881 229.414 197.79 230.328C197.515 232.065 197.241 234.075 196.967 236.269C195.687 245.318 193.768 258.296 191.483 274.2V274.383H191.3C166.257 274.383 133.261 274.383 97.2497 274.474C96.4271 274.474 95.6045 274.474 94.6905 274.474C94.3249 274.474 93.7765 274.474 93.3195 274.2C92.8625 273.926 92.5883 273.56 92.4055 273.103C92.0399 272.189 92.4969 271.092 93.3195 270.635C93.6851 270.361 94.2335 270.361 94.6905 270.361H95.9701C99.2605 270.361 102.551 270.361 105.841 270.361C112.331 270.361 118.637 270.361 124.761 270.361L124.578 270.544C126.863 255.189 129.057 240.839 130.976 227.952C131.068 227.129 131.433 226.215 132.073 225.667C132.713 225.118 133.535 224.753 134.358 224.661C135.181 224.57 136.003 224.57 136.734 224.57C137.557 224.57 138.288 224.57 139.019 224.57C142.036 224.57 145.052 224.57 147.885 224.478C153.552 224.478 158.853 224.387 163.697 224.387C173.294 224.296 180.881 224.296 186.182 224.296C188.832 224.296 190.843 224.296 192.214 224.296C192.854 224.296 193.402 224.296 193.768 224.296C193.859 224.387 194.042 224.387 194.042 224.387C194.042 224.387 193.859 224.387 193.494 224.387C193.128 224.387 192.58 224.387 191.94 224.387C190.569 224.387 188.558 224.478 185.908 224.478C180.698 224.57 173.02 224.661 163.423 224.753C158.67 224.844 153.369 224.844 147.611 224.935C144.778 224.935 141.761 225.027 138.745 225.027C138.014 225.027 137.191 225.027 136.46 225.027C135.729 225.027 134.906 225.027 134.175 225.118C133.444 225.21 132.713 225.484 132.164 226.032C131.616 226.581 131.25 227.22 131.25 228.043C129.331 240.93 127.229 255.28 124.852 270.635V270.818H124.67C118.546 270.818 112.239 270.818 105.75 270.818C102.551 270.818 99.2605 270.818 95.8787 270.818H94.5991C94.1421 270.818 93.8679 270.818 93.5023 271.001C92.8625 271.367 92.4969 272.189 92.7711 272.829C92.8625 273.195 93.1367 273.469 93.5023 273.652C93.8679 273.834 94.1421 273.834 94.5991 273.834C95.4217 273.834 96.2443 273.834 97.1583 273.834C133.17 273.834 166.165 273.834 191.209 273.926L191.026 274.109C193.402 258.205 195.322 245.226 196.693 236.178C197.058 233.893 197.333 231.973 197.607 230.237C197.698 229.414 197.972 228.591 197.881 227.86C197.79 227.129 197.515 226.489 197.241 226.032C196.51 225.027 195.596 224.661 195.048 224.57C194.408 224.387 194.042 224.478 194.042 224.387Z" fill="#263238"/>
<path d="M162.144 252.447C164.163 252.447 165.8 250.81 165.8 248.791C165.8 246.772 164.163 245.135 162.144 245.135C160.125 245.135 158.488 246.772 158.488 248.791C158.488 250.81 160.125 252.447 162.144 252.447Z" fill="white"/>
<path d="M127.046 273.834C127.138 273.834 128.966 262.866 131.251 249.431C133.444 235.903 135.181 224.935 135.181 224.935C135.089 224.935 133.261 235.812 130.976 249.339C128.691 262.866 126.955 273.834 127.046 273.834Z" fill="#263238"/>
</svg>
