<svg width="24" height="24" viewBox="0 0 24 24" fill="none" xmlns="http://www.w3.org/2000/svg">
<path fill-rule="evenodd" clip-rule="evenodd" d="M12.5 23C6.42487 23 1.5 18.0751 1.5 12C1.5 5.92487 6.42487 1 12.5 1C18.5751 1 23.5 5.92487 23.5 12C23.5 18.0751 18.5751 23 12.5 23ZM12.5 22C17.4706 22 22.5 16.9706 22.5 12C22.5 7.02944 17.4706 2 12.5 2C7.52944 2 2.5 7.02944 2.5 12C2.5 16.9706 7.52944 22 12.5 22ZM15 15.5L13.7929 16.7071L9.08579 12L13.7929 7.29289L15 8.5L11.5 12L15 15.5Z" fill="black"/>
</svg>
