<svg width="205" height="27" viewBox="0 0 205 27" fill="none" xmlns="http://www.w3.org/2000/svg">
<path d="M6.062 15.606C7.25 15.606 8.318 15.438 9.266 15.102C10.226 14.766 11.036 14.304 11.696 13.716C12.368 13.128 12.884 12.432 13.244 11.628C13.604 10.824 13.784 9.96 13.784 9.036C13.784 6.9 13.142 5.274 11.858 4.158C10.574 3.042 8.642 2.484 6.062 2.484H1.004V15.606H6.062ZM6.062 1.692C8.918 1.692 11.084 2.304 12.56 3.528C14.048 4.752 14.792 6.588 14.792 9.036C14.792 10.104 14.582 11.094 14.162 12.006C13.754 12.906 13.166 13.686 12.398 14.346C11.63 14.994 10.706 15.504 9.626 15.876C8.558 16.236 7.37 16.416 6.062 16.416H1.004V27H0.0140001V1.692H6.062ZM21.3946 14.328H26.2186C27.4066 14.328 28.4746 14.19 29.4226 13.914C30.3826 13.626 31.1926 13.218 31.8526 12.69C32.5246 12.15 33.0346 11.502 33.3826 10.746C33.7426 9.99 33.9226 9.138 33.9226 8.19C33.9226 6.234 33.2866 4.794 32.0146 3.87C30.7426 2.946 28.9066 2.484 26.5066 2.484H21.3946V14.328ZM37.1986 27H36.3886C36.2566 27 36.1366 26.982 36.0286 26.946C35.9326 26.91 35.8366 26.826 35.7406 26.694L26.8126 15.768C26.7166 15.636 26.6146 15.528 26.5066 15.444C26.4106 15.36 26.2966 15.294 26.1646 15.246C26.0446 15.186 25.8946 15.144 25.7146 15.12C25.5466 15.096 25.3366 15.084 25.0846 15.084H21.3946V27H20.4046V1.692H26.5066C29.2546 1.692 31.3426 2.226 32.7706 3.294C34.1986 4.362 34.9126 5.982 34.9126 8.154C34.9126 9.15 34.7266 10.056 34.3546 10.872C33.9826 11.676 33.4606 12.378 32.7886 12.978C32.1166 13.566 31.3006 14.04 30.3406 14.4C29.3806 14.748 28.3186 14.958 27.1546 15.03C27.3706 15.15 27.5806 15.33 27.7846 15.57L37.1986 27ZM42.8751 27H41.8851V1.692H42.8751V27ZM69.4603 1.692L58.9483 27H58.0663L47.5543 1.692H48.3283C48.5323 1.692 48.6643 1.794 48.7243 1.998L58.1203 24.66C58.1923 24.852 58.2583 25.05 58.3183 25.254C58.3903 25.446 58.4563 25.644 58.5163 25.848C58.6243 25.44 58.7503 25.044 58.8943 24.66L68.2723 1.998C68.3323 1.794 68.4763 1.692 68.7043 1.692H69.4603ZM86.1527 17.928L80.3567 3.834C80.2247 3.51 80.0987 3.15 79.9787 2.754C79.8707 3.15 79.7447 3.51 79.6007 3.834L73.8047 17.928H86.1527ZM90.9407 27H90.1667C89.9867 27 89.8547 26.898 89.7707 26.694L86.4767 18.684H73.4807L70.1867 26.694C70.1267 26.898 69.9887 27 69.7727 27H69.0347L79.5107 1.692H80.4647L90.9407 27ZM109.2 2.556H99.9298V27H98.9398V2.556H89.6158V1.692H109.2V2.556ZM128.72 26.154L128.684 27H113.744V1.692H128.684V2.538H114.734V13.752H126.488V14.58H114.734V26.154H128.72Z" fill="#101820"/>
<path d="M149.361 5.454V11.574H157.605V16.074H149.361V22.32H160.125V27H143.241V0.774H160.125V5.454H149.361ZM176.442 17.028V27H170.358V17.028L160.854 0.774H166.218C166.746 0.774 167.16 0.899999 167.46 1.152C167.772 1.392 168.03 1.704 168.234 2.088L171.942 9.72C172.254 10.32 172.536 10.884 172.788 11.412C173.04 11.928 173.262 12.438 173.454 12.942C173.634 12.426 173.838 11.91 174.066 11.394C174.306 10.866 174.582 10.308 174.894 9.72L178.566 2.088C178.65 1.932 178.752 1.776 178.872 1.62C178.992 1.464 179.13 1.326 179.286 1.206C179.454 1.074 179.64 0.971998 179.844 0.899999C180.06 0.816 180.294 0.774 180.546 0.774H185.946L176.442 17.028ZM194.115 5.454V11.574H202.359V16.074H194.115V22.32H204.879V27H187.995V0.774H204.879V5.454H194.115Z" fill="#383E37"/>
</svg>
